%TF.GenerationSoftware,KiCad,Pcbnew,10.0.1*%
%TF.CreationDate,2026-08-20T14:16:20-04:00*%
%TF.ProjectId,ampere,616d7065-7265-42e6-9b69-6361645f7063,rev?*%
%TF.SameCoordinates,Original*%
%TF.FileFunction,Profile,NP*%
%FSLAX46Y46*%
G04 Gerber Fmt 4.6, Leading zero omitted, Abs format (unit mm)*
G04 Created by KiCad (PCBNEW 10.0.1) date 2026-08-20 14:16:20*
%MOMM*%
%LPD*%
G01*
G04 APERTURE LIST*
%TA.AperFunction,Profile*%
%ADD10C,0.100000*%
%TD*%
%TA.AperFunction,Profile*%
%ADD11C,0.010000*%
%TD*%
G04 APERTURE END LIST*
D10*
X86000000Y-86500000D02*
X86000000Y-148500000D01*
X86000000Y-86500000D02*
G75*
G02*
X87500000Y-85000000I1500000J0D01*
G01*
X87500000Y-150000000D02*
G75*
G02*
X86000000Y-148500000I0J1500000D01*
G01*
X111880000Y-88000000D02*
G75*
G02*
X108680000Y-88000000I-1600000J0D01*
G01*
X108680000Y-88000000D02*
G75*
G02*
X111880000Y-88000000I1600000J0D01*
G01*
X111780000Y-85000000D02*
X87500000Y-85000000D01*
X111780000Y-85000000D02*
G75*
G02*
X113280000Y-86500000I0J-1500000D01*
G01*
X113280000Y-86500000D02*
X113280000Y-89000000D01*
X114780000Y-90500000D02*
G75*
G02*
X113280000Y-89000000I0J1500000D01*
G01*
X114780000Y-90500000D02*
X149030000Y-90500000D01*
X117600000Y-110000000D02*
G75*
G02*
X114400000Y-110000000I-1600000J0D01*
G01*
X114400000Y-110000000D02*
G75*
G02*
X117600000Y-110000000I1600000J0D01*
G01*
X117600000Y-135000000D02*
G75*
G02*
X114400000Y-135000000I-1600000J0D01*
G01*
X114400000Y-135000000D02*
G75*
G02*
X117600000Y-135000000I1600000J0D01*
G01*
X147600000Y-135000000D02*
G75*
G02*
X144400000Y-135000000I-1600000J0D01*
G01*
X144400000Y-135000000D02*
G75*
G02*
X147600000Y-135000000I1600000J0D01*
G01*
X150530000Y-86500000D02*
X150530000Y-89000000D01*
X150530000Y-86500000D02*
G75*
G02*
X152030000Y-85000000I1500000J0D01*
G01*
X150530000Y-89000000D02*
G75*
G02*
X149030000Y-90500000I-1500000J0D01*
G01*
X184600000Y-88000000D02*
G75*
G02*
X181400000Y-88000000I-1600000J0D01*
G01*
X181400000Y-88000000D02*
G75*
G02*
X184600000Y-88000000I1600000J0D01*
G01*
X184500000Y-85000000D02*
X152030000Y-85000000D01*
X184500000Y-85000000D02*
G75*
G02*
X186000000Y-86500000I0J-1500000D01*
G01*
X184500000Y-150000000D02*
X87500000Y-150000000D01*
X186000000Y-86500000D02*
X186000000Y-148500000D01*
X186000000Y-148500000D02*
G75*
G02*
X184500000Y-150000000I-1500000J0D01*
G01*
%TO.C,J1*%
D11*
X168855000Y-92525000D02*
X168855000Y-91199999D01*
X169155000Y-90899999D02*
X169880000Y-90900000D01*
X169505000Y-91650000D02*
X169504999Y-92525000D01*
X169725000Y-89675001D02*
X170075000Y-89675000D01*
X169880000Y-91650000D02*
X169505000Y-91650000D01*
X170075000Y-90205000D02*
X169725000Y-90205000D01*
X170180000Y-91200000D02*
X170180000Y-91350000D01*
X176820000Y-91200000D02*
X176820000Y-91350000D01*
X177120000Y-91650000D02*
X177495000Y-91650000D01*
X177495000Y-91650000D02*
X177495001Y-92525000D01*
X177845000Y-90899999D02*
X177120000Y-90900000D01*
X178145000Y-92525000D02*
X178145000Y-91199999D01*
X168855000Y-91199999D02*
G75*
G02*
X169155000Y-90900000I300000J-1D01*
G01*
X169180000Y-92850000D02*
G75*
G02*
X168855000Y-92525000I0J325000D01*
G01*
X169460001Y-89940000D02*
G75*
G02*
X169725000Y-89675001I264999J0D01*
G01*
X169504999Y-92525000D02*
G75*
G02*
X169180000Y-92849999I-324999J0D01*
G01*
X169725000Y-90205000D02*
G75*
G02*
X169460000Y-89940000I0J265000D01*
G01*
X169880000Y-90900000D02*
G75*
G02*
X170180000Y-91200000I0J-300000D01*
G01*
X170075000Y-89675000D02*
G75*
G02*
X170340000Y-89940000I0J-265000D01*
G01*
X170180000Y-91350000D02*
G75*
G02*
X169880000Y-91650000I-300000J0D01*
G01*
X170340001Y-89940000D02*
G75*
G02*
X170075000Y-90205001I-265001J0D01*
G01*
X176820000Y-91200000D02*
G75*
G02*
X177120000Y-90900000I300000J0D01*
G01*
X177120000Y-91650000D02*
G75*
G02*
X176820000Y-91350000I0J300000D01*
G01*
X177820000Y-92850000D02*
G75*
G02*
X177495001Y-92525000I-2J324997D01*
G01*
X177845000Y-90899999D02*
G75*
G02*
X178145000Y-91199999I0J-300000D01*
G01*
X178145000Y-92525000D02*
G75*
G02*
X177820000Y-92850000I-324999J-1D01*
G01*
X155355000Y-92525000D02*
X155355000Y-91199999D01*
X155655000Y-90899999D02*
X156380000Y-90900000D01*
X156005000Y-91650000D02*
X156004999Y-92525000D01*
X156225000Y-89675001D02*
X156575000Y-89675000D01*
X156380000Y-91650000D02*
X156005000Y-91650000D01*
X156575000Y-90205000D02*
X156225000Y-90205000D01*
X156680000Y-91200000D02*
X156680000Y-91350000D01*
X163320000Y-91200000D02*
X163320000Y-91350000D01*
X163620000Y-91650000D02*
X163995000Y-91650000D01*
X163995000Y-91650000D02*
X163995001Y-92525000D01*
X164345000Y-90899999D02*
X163620000Y-90900000D01*
X164645000Y-92525000D02*
X164645000Y-91199999D01*
X155355000Y-91199999D02*
G75*
G02*
X155655000Y-90900000I300000J-1D01*
G01*
X155680000Y-92850000D02*
G75*
G02*
X155355000Y-92525000I0J325000D01*
G01*
X155960001Y-89940000D02*
G75*
G02*
X156225000Y-89675001I264999J0D01*
G01*
X156004999Y-92525000D02*
G75*
G02*
X155680000Y-92849999I-324999J0D01*
G01*
X156225000Y-90205000D02*
G75*
G02*
X155960000Y-89940000I0J265000D01*
G01*
X156380000Y-90900000D02*
G75*
G02*
X156680000Y-91200000I0J-300000D01*
G01*
X156575000Y-89675000D02*
G75*
G02*
X156840000Y-89940000I0J-265000D01*
G01*
X156680000Y-91350000D02*
G75*
G02*
X156380000Y-91650000I-300000J0D01*
G01*
X156840001Y-89940000D02*
G75*
G02*
X156575000Y-90205001I-265001J0D01*
G01*
X163320000Y-91200000D02*
G75*
G02*
X163620000Y-90900000I300000J0D01*
G01*
X163620000Y-91650000D02*
G75*
G02*
X163320000Y-91350000I0J300000D01*
G01*
X164320000Y-92850000D02*
G75*
G02*
X163995001Y-92525000I-2J324997D01*
G01*
X164345000Y-90899999D02*
G75*
G02*
X164645000Y-91199999I0J-300000D01*
G01*
X164645000Y-92525000D02*
G75*
G02*
X164320000Y-92850000I-324999J-1D01*
G01*
%TD*%
M02*
