%TF.GenerationSoftware,KiCad,Pcbnew,10.0.1*%
%TF.CreationDate,2026-08-20T14:16:20-04:00*%
%TF.ProjectId,ampere,616d7065-7265-42e6-9b69-6361645f7063,rev?*%
%TF.SameCoordinates,Original*%
%TF.FileFunction,Paste,Bot*%
%TF.FilePolarity,Positive*%
%FSLAX46Y46*%
G04 Gerber Fmt 4.6, Leading zero omitted, Abs format (unit mm)*
G04 Created by KiCad (PCBNEW 10.0.1) date 2026-08-20 14:16:20*
%MOMM*%
%LPD*%
G01*
G04 APERTURE LIST*
G04 Aperture macros list*
%AMRoundRect*
0 Rectangle with rounded corners*
0 $1 Rounding radius*
0 $2 $3 $4 $5 $6 $7 $8 $9 X,Y pos of 4 corners*
0 Add a 4 corners polygon primitive as box body*
4,1,4,$2,$3,$4,$5,$6,$7,$8,$9,$2,$3,0*
0 Add four circle primitives for the rounded corners*
1,1,$1+$1,$2,$3*
1,1,$1+$1,$4,$5*
1,1,$1+$1,$6,$7*
1,1,$1+$1,$8,$9*
0 Add four rect primitives between the rounded corners*
20,1,$1+$1,$2,$3,$4,$5,0*
20,1,$1+$1,$4,$5,$6,$7,0*
20,1,$1+$1,$6,$7,$8,$9,0*
20,1,$1+$1,$8,$9,$2,$3,0*%
G04 Aperture macros list end*
%ADD10C,0.010000*%
%ADD11RoundRect,0.225000X0.225000X0.250000X-0.225000X0.250000X-0.225000X-0.250000X0.225000X-0.250000X0*%
%ADD12RoundRect,0.140000X0.170000X-0.140000X0.170000X0.140000X-0.170000X0.140000X-0.170000X-0.140000X0*%
%ADD13RoundRect,0.140000X-0.170000X0.140000X-0.170000X-0.140000X0.170000X-0.140000X0.170000X0.140000X0*%
G04 APERTURE END LIST*
D10*
%TO.C,J1*%
X169780000Y-92425000D02*
X169779000Y-92456000D01*
X169776999Y-92488000D01*
X169773000Y-92519000D01*
X169767000Y-92550000D01*
X169760000Y-92580000D01*
X169751000Y-92610000D01*
X169740000Y-92640000D01*
X169728000Y-92669000D01*
X169715000Y-92697000D01*
X169700000Y-92725000D01*
X169683000Y-92752000D01*
X169665000Y-92777999D01*
X169646000Y-92803000D01*
X169626000Y-92826000D01*
X169604000Y-92849001D01*
X169581000Y-92870999D01*
X169558000Y-92891000D01*
X169532999Y-92910000D01*
X169507001Y-92928000D01*
X169480000Y-92945000D01*
X169452000Y-92960000D01*
X169424000Y-92973000D01*
X169395000Y-92985000D01*
X169365000Y-92996000D01*
X169335000Y-93005000D01*
X169305000Y-93012000D01*
X169274000Y-93018000D01*
X169242999Y-93022000D01*
X169211000Y-93024000D01*
X169180000Y-93025000D01*
X169149000Y-93024000D01*
X169117000Y-93022000D01*
X169086000Y-93018000D01*
X169054999Y-93012000D01*
X169025000Y-93005000D01*
X168995000Y-92996000D01*
X168965000Y-92985000D01*
X168936000Y-92973000D01*
X168908000Y-92960000D01*
X168880000Y-92945000D01*
X168853000Y-92928000D01*
X168827000Y-92910000D01*
X168802000Y-92891000D01*
X168779000Y-92871000D01*
X168756000Y-92849000D01*
X168734000Y-92826000D01*
X168714000Y-92803000D01*
X168695000Y-92778000D01*
X168677000Y-92752000D01*
X168660000Y-92725000D01*
X168645000Y-92697000D01*
X168632000Y-92669000D01*
X168620000Y-92640000D01*
X168609000Y-92610000D01*
X168600000Y-92580000D01*
X168593000Y-92550001D01*
X168587000Y-92519000D01*
X168583000Y-92488000D01*
X168581000Y-92456000D01*
X168580000Y-92425000D01*
X168580000Y-91325000D01*
X168581000Y-91294000D01*
X168583000Y-91262000D01*
X168587000Y-91231000D01*
X168593001Y-91200000D01*
X168596734Y-91184000D01*
X168855000Y-91184000D01*
X168855000Y-91199999D01*
X168855000Y-92525000D01*
X168855000Y-92542000D01*
X168857000Y-92559000D01*
X168859000Y-92576000D01*
X168862000Y-92593000D01*
X168866000Y-92609000D01*
X168871000Y-92625000D01*
X168877000Y-92641000D01*
X168883000Y-92657000D01*
X168890000Y-92673000D01*
X168899000Y-92688000D01*
X168907000Y-92701999D01*
X168917000Y-92716000D01*
X168927000Y-92730000D01*
X168938000Y-92742000D01*
X168950001Y-92755000D01*
X168963000Y-92767000D01*
X168975000Y-92778000D01*
X168989000Y-92788000D01*
X169003000Y-92798000D01*
X169017999Y-92806000D01*
X169032000Y-92815000D01*
X169048000Y-92822000D01*
X169064000Y-92828000D01*
X169080000Y-92834000D01*
X169096000Y-92839000D01*
X169112000Y-92842999D01*
X169129000Y-92846000D01*
X169146001Y-92848000D01*
X169163000Y-92850000D01*
X169180000Y-92850000D01*
X169197000Y-92850000D01*
X169214000Y-92848000D01*
X169231000Y-92846000D01*
X169248000Y-92843000D01*
X169264000Y-92839000D01*
X169279999Y-92834000D01*
X169296000Y-92828000D01*
X169312000Y-92822000D01*
X169328000Y-92814999D01*
X169342000Y-92806000D01*
X169357000Y-92798001D01*
X169371000Y-92788000D01*
X169385001Y-92778000D01*
X169397000Y-92767000D01*
X169410000Y-92755000D01*
X169422000Y-92742001D01*
X169433000Y-92730000D01*
X169443000Y-92716000D01*
X169453000Y-92702000D01*
X169461000Y-92688000D01*
X169470000Y-92673000D01*
X169476999Y-92657000D01*
X169483000Y-92640999D01*
X169489000Y-92625000D01*
X169494000Y-92609000D01*
X169498000Y-92593000D01*
X169501000Y-92575999D01*
X169503000Y-92559000D01*
X169505000Y-92542000D01*
X169504999Y-92525000D01*
X169505000Y-91825000D01*
X169505000Y-91650000D01*
X169880000Y-91650000D01*
X169896000Y-91650000D01*
X169911000Y-91648000D01*
X169927000Y-91646001D01*
X169942000Y-91643000D01*
X169958000Y-91640000D01*
X169972999Y-91635000D01*
X169988000Y-91629999D01*
X170002000Y-91624000D01*
X170016000Y-91617000D01*
X170030000Y-91610000D01*
X170042999Y-91602000D01*
X170056000Y-91593000D01*
X170069000Y-91583000D01*
X170081000Y-91573000D01*
X170092000Y-91562000D01*
X170103000Y-91551000D01*
X170113000Y-91539000D01*
X170123000Y-91526000D01*
X170131999Y-91513000D01*
X170140000Y-91500000D01*
X170147000Y-91486000D01*
X170154000Y-91472000D01*
X170160000Y-91458000D01*
X170164999Y-91443000D01*
X170170000Y-91428000D01*
X170173000Y-91412000D01*
X170176001Y-91397000D01*
X170178000Y-91381000D01*
X170180000Y-91366000D01*
X170180000Y-91350000D01*
X170180000Y-91200000D01*
X170180000Y-91184000D01*
X170178000Y-91169000D01*
X170176001Y-91153000D01*
X170173000Y-91138000D01*
X170170000Y-91122000D01*
X170164999Y-91107000D01*
X170160000Y-91092000D01*
X170154000Y-91078000D01*
X170147000Y-91064000D01*
X170140000Y-91050000D01*
X170131999Y-91037000D01*
X170123000Y-91024000D01*
X170113000Y-91011000D01*
X170103000Y-90999000D01*
X170092000Y-90988000D01*
X170081000Y-90977000D01*
X170069000Y-90967000D01*
X170056000Y-90957000D01*
X170042999Y-90948000D01*
X170030000Y-90940000D01*
X170016000Y-90933000D01*
X170002000Y-90926000D01*
X169988000Y-90920001D01*
X169972999Y-90915000D01*
X169958000Y-90910000D01*
X169942000Y-90907000D01*
X169927000Y-90903999D01*
X169911000Y-90902000D01*
X169896000Y-90900000D01*
X169880000Y-90900000D01*
X169155000Y-90899999D01*
X169139000Y-90900000D01*
X169124000Y-90902000D01*
X169108000Y-90904000D01*
X169093000Y-90907000D01*
X169077000Y-90910000D01*
X169062000Y-90915000D01*
X169047000Y-90920000D01*
X169033000Y-90926000D01*
X169019000Y-90932999D01*
X169005000Y-90940000D01*
X168992000Y-90948000D01*
X168979000Y-90957000D01*
X168965999Y-90967000D01*
X168954000Y-90977000D01*
X168943000Y-90988000D01*
X168932000Y-90999000D01*
X168922000Y-91011000D01*
X168912000Y-91024000D01*
X168903000Y-91037000D01*
X168895000Y-91050000D01*
X168888000Y-91063999D01*
X168881000Y-91078000D01*
X168875000Y-91092000D01*
X168870000Y-91107000D01*
X168865000Y-91122000D01*
X168862000Y-91138000D01*
X168859000Y-91153000D01*
X168857000Y-91169000D01*
X168855000Y-91184000D01*
X168596734Y-91184000D01*
X168600000Y-91170000D01*
X168609000Y-91140000D01*
X168620000Y-91110000D01*
X168632000Y-91081000D01*
X168645000Y-91053000D01*
X168660000Y-91025000D01*
X168677000Y-90998000D01*
X168695000Y-90972000D01*
X168713999Y-90947000D01*
X168734000Y-90924000D01*
X168756000Y-90901000D01*
X168779000Y-90879000D01*
X168802000Y-90859000D01*
X168827000Y-90840000D01*
X168853000Y-90822000D01*
X168880000Y-90805000D01*
X168908000Y-90790000D01*
X168936000Y-90777000D01*
X168965000Y-90765000D01*
X168995000Y-90754000D01*
X169025000Y-90745000D01*
X169055000Y-90738000D01*
X169086000Y-90732000D01*
X169117000Y-90728000D01*
X169149000Y-90725999D01*
X169180000Y-90725000D01*
X169730000Y-90725000D01*
X169759000Y-90725999D01*
X169787000Y-90728001D01*
X169816000Y-90732000D01*
X169844001Y-90737000D01*
X169872000Y-90744000D01*
X169900000Y-90752000D01*
X169927000Y-90762000D01*
X169953999Y-90773000D01*
X169980000Y-90785000D01*
X170005000Y-90799000D01*
X170030000Y-90814000D01*
X170053000Y-90830000D01*
X170075999Y-90848000D01*
X170098000Y-90866000D01*
X170119000Y-90886000D01*
X170139000Y-90907000D01*
X170157000Y-90929001D01*
X170175000Y-90952000D01*
X170191000Y-90975000D01*
X170206000Y-91000000D01*
X170220000Y-91025000D01*
X170232000Y-91051001D01*
X170243000Y-91078000D01*
X170253000Y-91105000D01*
X170261000Y-91133000D01*
X170268000Y-91161000D01*
X170273000Y-91189000D01*
X170277000Y-91218000D01*
X170279000Y-91245999D01*
X170280000Y-91275000D01*
X170279000Y-91304001D01*
X170277000Y-91332000D01*
X170273000Y-91361000D01*
X170268000Y-91389000D01*
X170261000Y-91417000D01*
X170253000Y-91445000D01*
X170243000Y-91472000D01*
X170232000Y-91498999D01*
X170220000Y-91525000D01*
X170206000Y-91550000D01*
X170191000Y-91575000D01*
X170175000Y-91598000D01*
X170157000Y-91620999D01*
X170139000Y-91643000D01*
X170119000Y-91664000D01*
X170098000Y-91684000D01*
X170075999Y-91702000D01*
X170053000Y-91720000D01*
X170030000Y-91736000D01*
X170005000Y-91751000D01*
X169980000Y-91765000D01*
X169953999Y-91777000D01*
X169927000Y-91788000D01*
X169900000Y-91798000D01*
X169872000Y-91806000D01*
X169844001Y-91813000D01*
X169816000Y-91818000D01*
X169787000Y-91821999D01*
X169759000Y-91824001D01*
X169730000Y-91825000D01*
X169780000Y-91825000D01*
X169780000Y-92425000D01*
G36*
X169780000Y-92425000D02*
G01*
X169779000Y-92456000D01*
X169776999Y-92488000D01*
X169773000Y-92519000D01*
X169767000Y-92550000D01*
X169760000Y-92580000D01*
X169751000Y-92610000D01*
X169740000Y-92640000D01*
X169728000Y-92669000D01*
X169715000Y-92697000D01*
X169700000Y-92725000D01*
X169683000Y-92752000D01*
X169665000Y-92777999D01*
X169646000Y-92803000D01*
X169626000Y-92826000D01*
X169604000Y-92849001D01*
X169581000Y-92870999D01*
X169558000Y-92891000D01*
X169532999Y-92910000D01*
X169507001Y-92928000D01*
X169480000Y-92945000D01*
X169452000Y-92960000D01*
X169424000Y-92973000D01*
X169395000Y-92985000D01*
X169365000Y-92996000D01*
X169335000Y-93005000D01*
X169305000Y-93012000D01*
X169274000Y-93018000D01*
X169242999Y-93022000D01*
X169211000Y-93024000D01*
X169180000Y-93025000D01*
X169149000Y-93024000D01*
X169117000Y-93022000D01*
X169086000Y-93018000D01*
X169054999Y-93012000D01*
X169025000Y-93005000D01*
X168995000Y-92996000D01*
X168965000Y-92985000D01*
X168936000Y-92973000D01*
X168908000Y-92960000D01*
X168880000Y-92945000D01*
X168853000Y-92928000D01*
X168827000Y-92910000D01*
X168802000Y-92891000D01*
X168779000Y-92871000D01*
X168756000Y-92849000D01*
X168734000Y-92826000D01*
X168714000Y-92803000D01*
X168695000Y-92778000D01*
X168677000Y-92752000D01*
X168660000Y-92725000D01*
X168645000Y-92697000D01*
X168632000Y-92669000D01*
X168620000Y-92640000D01*
X168609000Y-92610000D01*
X168600000Y-92580000D01*
X168593000Y-92550001D01*
X168587000Y-92519000D01*
X168583000Y-92488000D01*
X168581000Y-92456000D01*
X168580000Y-92425000D01*
X168580000Y-91325000D01*
X168581000Y-91294000D01*
X168583000Y-91262000D01*
X168587000Y-91231000D01*
X168593001Y-91200000D01*
X168596734Y-91184000D01*
X168855000Y-91184000D01*
X168855000Y-91199999D01*
X168855000Y-92525000D01*
X168855000Y-92542000D01*
X168857000Y-92559000D01*
X168859000Y-92576000D01*
X168862000Y-92593000D01*
X168866000Y-92609000D01*
X168871000Y-92625000D01*
X168877000Y-92641000D01*
X168883000Y-92657000D01*
X168890000Y-92673000D01*
X168899000Y-92688000D01*
X168907000Y-92701999D01*
X168917000Y-92716000D01*
X168927000Y-92730000D01*
X168938000Y-92742000D01*
X168950001Y-92755000D01*
X168963000Y-92767000D01*
X168975000Y-92778000D01*
X168989000Y-92788000D01*
X169003000Y-92798000D01*
X169017999Y-92806000D01*
X169032000Y-92815000D01*
X169048000Y-92822000D01*
X169064000Y-92828000D01*
X169080000Y-92834000D01*
X169096000Y-92839000D01*
X169112000Y-92842999D01*
X169129000Y-92846000D01*
X169146001Y-92848000D01*
X169163000Y-92850000D01*
X169180000Y-92850000D01*
X169197000Y-92850000D01*
X169214000Y-92848000D01*
X169231000Y-92846000D01*
X169248000Y-92843000D01*
X169264000Y-92839000D01*
X169279999Y-92834000D01*
X169296000Y-92828000D01*
X169312000Y-92822000D01*
X169328000Y-92814999D01*
X169342000Y-92806000D01*
X169357000Y-92798001D01*
X169371000Y-92788000D01*
X169385001Y-92778000D01*
X169397000Y-92767000D01*
X169410000Y-92755000D01*
X169422000Y-92742001D01*
X169433000Y-92730000D01*
X169443000Y-92716000D01*
X169453000Y-92702000D01*
X169461000Y-92688000D01*
X169470000Y-92673000D01*
X169476999Y-92657000D01*
X169483000Y-92640999D01*
X169489000Y-92625000D01*
X169494000Y-92609000D01*
X169498000Y-92593000D01*
X169501000Y-92575999D01*
X169503000Y-92559000D01*
X169505000Y-92542000D01*
X169504999Y-92525000D01*
X169505000Y-91825000D01*
X169505000Y-91650000D01*
X169880000Y-91650000D01*
X169896000Y-91650000D01*
X169911000Y-91648000D01*
X169927000Y-91646001D01*
X169942000Y-91643000D01*
X169958000Y-91640000D01*
X169972999Y-91635000D01*
X169988000Y-91629999D01*
X170002000Y-91624000D01*
X170016000Y-91617000D01*
X170030000Y-91610000D01*
X170042999Y-91602000D01*
X170056000Y-91593000D01*
X170069000Y-91583000D01*
X170081000Y-91573000D01*
X170092000Y-91562000D01*
X170103000Y-91551000D01*
X170113000Y-91539000D01*
X170123000Y-91526000D01*
X170131999Y-91513000D01*
X170140000Y-91500000D01*
X170147000Y-91486000D01*
X170154000Y-91472000D01*
X170160000Y-91458000D01*
X170164999Y-91443000D01*
X170170000Y-91428000D01*
X170173000Y-91412000D01*
X170176001Y-91397000D01*
X170178000Y-91381000D01*
X170180000Y-91366000D01*
X170180000Y-91350000D01*
X170180000Y-91200000D01*
X170180000Y-91184000D01*
X170178000Y-91169000D01*
X170176001Y-91153000D01*
X170173000Y-91138000D01*
X170170000Y-91122000D01*
X170164999Y-91107000D01*
X170160000Y-91092000D01*
X170154000Y-91078000D01*
X170147000Y-91064000D01*
X170140000Y-91050000D01*
X170131999Y-91037000D01*
X170123000Y-91024000D01*
X170113000Y-91011000D01*
X170103000Y-90999000D01*
X170092000Y-90988000D01*
X170081000Y-90977000D01*
X170069000Y-90967000D01*
X170056000Y-90957000D01*
X170042999Y-90948000D01*
X170030000Y-90940000D01*
X170016000Y-90933000D01*
X170002000Y-90926000D01*
X169988000Y-90920001D01*
X169972999Y-90915000D01*
X169958000Y-90910000D01*
X169942000Y-90907000D01*
X169927000Y-90903999D01*
X169911000Y-90902000D01*
X169896000Y-90900000D01*
X169880000Y-90900000D01*
X169155000Y-90899999D01*
X169139000Y-90900000D01*
X169124000Y-90902000D01*
X169108000Y-90904000D01*
X169093000Y-90907000D01*
X169077000Y-90910000D01*
X169062000Y-90915000D01*
X169047000Y-90920000D01*
X169033000Y-90926000D01*
X169019000Y-90932999D01*
X169005000Y-90940000D01*
X168992000Y-90948000D01*
X168979000Y-90957000D01*
X168965999Y-90967000D01*
X168954000Y-90977000D01*
X168943000Y-90988000D01*
X168932000Y-90999000D01*
X168922000Y-91011000D01*
X168912000Y-91024000D01*
X168903000Y-91037000D01*
X168895000Y-91050000D01*
X168888000Y-91063999D01*
X168881000Y-91078000D01*
X168875000Y-91092000D01*
X168870000Y-91107000D01*
X168865000Y-91122000D01*
X168862000Y-91138000D01*
X168859000Y-91153000D01*
X168857000Y-91169000D01*
X168855000Y-91184000D01*
X168596734Y-91184000D01*
X168600000Y-91170000D01*
X168609000Y-91140000D01*
X168620000Y-91110000D01*
X168632000Y-91081000D01*
X168645000Y-91053000D01*
X168660000Y-91025000D01*
X168677000Y-90998000D01*
X168695000Y-90972000D01*
X168713999Y-90947000D01*
X168734000Y-90924000D01*
X168756000Y-90901000D01*
X168779000Y-90879000D01*
X168802000Y-90859000D01*
X168827000Y-90840000D01*
X168853000Y-90822000D01*
X168880000Y-90805000D01*
X168908000Y-90790000D01*
X168936000Y-90777000D01*
X168965000Y-90765000D01*
X168995000Y-90754000D01*
X169025000Y-90745000D01*
X169055000Y-90738000D01*
X169086000Y-90732000D01*
X169117000Y-90728000D01*
X169149000Y-90725999D01*
X169180000Y-90725000D01*
X169730000Y-90725000D01*
X169759000Y-90725999D01*
X169787000Y-90728001D01*
X169816000Y-90732000D01*
X169844001Y-90737000D01*
X169872000Y-90744000D01*
X169900000Y-90752000D01*
X169927000Y-90762000D01*
X169953999Y-90773000D01*
X169980000Y-90785000D01*
X170005000Y-90799000D01*
X170030000Y-90814000D01*
X170053000Y-90830000D01*
X170075999Y-90848000D01*
X170098000Y-90866000D01*
X170119000Y-90886000D01*
X170139000Y-90907000D01*
X170157000Y-90929001D01*
X170175000Y-90952000D01*
X170191000Y-90975000D01*
X170206000Y-91000000D01*
X170220000Y-91025000D01*
X170232000Y-91051001D01*
X170243000Y-91078000D01*
X170253000Y-91105000D01*
X170261000Y-91133000D01*
X170268000Y-91161000D01*
X170273000Y-91189000D01*
X170277000Y-91218000D01*
X170279000Y-91245999D01*
X170280000Y-91275000D01*
X170279000Y-91304001D01*
X170277000Y-91332000D01*
X170273000Y-91361000D01*
X170268000Y-91389000D01*
X170261000Y-91417000D01*
X170253000Y-91445000D01*
X170243000Y-91472000D01*
X170232000Y-91498999D01*
X170220000Y-91525000D01*
X170206000Y-91550000D01*
X170191000Y-91575000D01*
X170175000Y-91598000D01*
X170157000Y-91620999D01*
X170139000Y-91643000D01*
X170119000Y-91664000D01*
X170098000Y-91684000D01*
X170075999Y-91702000D01*
X170053000Y-91720000D01*
X170030000Y-91736000D01*
X170005000Y-91751000D01*
X169980000Y-91765000D01*
X169953999Y-91777000D01*
X169927000Y-91788000D01*
X169900000Y-91798000D01*
X169872000Y-91806000D01*
X169844001Y-91813000D01*
X169816000Y-91818000D01*
X169787000Y-91821999D01*
X169759000Y-91824001D01*
X169730000Y-91825000D01*
X169780000Y-91825000D01*
X169780000Y-92425000D01*
G37*
X177851000Y-90725999D02*
X177883000Y-90728000D01*
X177914000Y-90732000D01*
X177945000Y-90738000D01*
X177975000Y-90745000D01*
X178005000Y-90754000D01*
X178035000Y-90765000D01*
X178064000Y-90777000D01*
X178092000Y-90790000D01*
X178120000Y-90805000D01*
X178147000Y-90822000D01*
X178173000Y-90840000D01*
X178198000Y-90859000D01*
X178221000Y-90879000D01*
X178244000Y-90901000D01*
X178266000Y-90924000D01*
X178286001Y-90947000D01*
X178305000Y-90972000D01*
X178323000Y-90998000D01*
X178340000Y-91025000D01*
X178355000Y-91053000D01*
X178368000Y-91081000D01*
X178380000Y-91110000D01*
X178391000Y-91140000D01*
X178400000Y-91170000D01*
X178406999Y-91200000D01*
X178413000Y-91231000D01*
X178417000Y-91262000D01*
X178419000Y-91294000D01*
X178420000Y-91325000D01*
X178420000Y-92425000D01*
X178419000Y-92456000D01*
X178417000Y-92488000D01*
X178413000Y-92519000D01*
X178407000Y-92550001D01*
X178400000Y-92580000D01*
X178391000Y-92610000D01*
X178380000Y-92640000D01*
X178368000Y-92669000D01*
X178355000Y-92697000D01*
X178340000Y-92725000D01*
X178323000Y-92752000D01*
X178305000Y-92778000D01*
X178286000Y-92803000D01*
X178266000Y-92826000D01*
X178244000Y-92849000D01*
X178221000Y-92871000D01*
X178198000Y-92891000D01*
X178173000Y-92910000D01*
X178147000Y-92928000D01*
X178120000Y-92945000D01*
X178092000Y-92960000D01*
X178064000Y-92973000D01*
X178035000Y-92985000D01*
X178005000Y-92996000D01*
X177975000Y-93005000D01*
X177945001Y-93012000D01*
X177914000Y-93018000D01*
X177883000Y-93022000D01*
X177851000Y-93024000D01*
X177820000Y-93025000D01*
X177789000Y-93024000D01*
X177757001Y-93022000D01*
X177726000Y-93018000D01*
X177695000Y-93012000D01*
X177665000Y-93005000D01*
X177635000Y-92996000D01*
X177605000Y-92985000D01*
X177576000Y-92973000D01*
X177548000Y-92960000D01*
X177520000Y-92945000D01*
X177492999Y-92928000D01*
X177467001Y-92910000D01*
X177442000Y-92891000D01*
X177419000Y-92870999D01*
X177396000Y-92849001D01*
X177374000Y-92826000D01*
X177354000Y-92803000D01*
X177335000Y-92777999D01*
X177317000Y-92752000D01*
X177300000Y-92725000D01*
X177285000Y-92697000D01*
X177272000Y-92669000D01*
X177260000Y-92640000D01*
X177249000Y-92610000D01*
X177240000Y-92580000D01*
X177233000Y-92550000D01*
X177227000Y-92519000D01*
X177223001Y-92488000D01*
X177221000Y-92456000D01*
X177220000Y-92425000D01*
X177220000Y-91825000D01*
X177270000Y-91825000D01*
X177241000Y-91824001D01*
X177213000Y-91821999D01*
X177184000Y-91818000D01*
X177155999Y-91813000D01*
X177128000Y-91806000D01*
X177100000Y-91798000D01*
X177073000Y-91788000D01*
X177046001Y-91777000D01*
X177020000Y-91765000D01*
X176995000Y-91751000D01*
X176970000Y-91736000D01*
X176947000Y-91720000D01*
X176924001Y-91702000D01*
X176902000Y-91684000D01*
X176881000Y-91664000D01*
X176861000Y-91643000D01*
X176843000Y-91620999D01*
X176825000Y-91598000D01*
X176809000Y-91575000D01*
X176794000Y-91550000D01*
X176780000Y-91525000D01*
X176768000Y-91498999D01*
X176757000Y-91472000D01*
X176747000Y-91445000D01*
X176739000Y-91417000D01*
X176732000Y-91389000D01*
X176727000Y-91361000D01*
X176723000Y-91332000D01*
X176721000Y-91304001D01*
X176720000Y-91275000D01*
X176721000Y-91245999D01*
X176723000Y-91218000D01*
X176727000Y-91189000D01*
X176727893Y-91184000D01*
X176820000Y-91184000D01*
X176820000Y-91200000D01*
X176820000Y-91350000D01*
X176820000Y-91366000D01*
X176822000Y-91381000D01*
X176823999Y-91397000D01*
X176827000Y-91412000D01*
X176830000Y-91428000D01*
X176835001Y-91443000D01*
X176840000Y-91458000D01*
X176846000Y-91472000D01*
X176853000Y-91486000D01*
X176860000Y-91500000D01*
X176868001Y-91513000D01*
X176877000Y-91526000D01*
X176887000Y-91539000D01*
X176897000Y-91551000D01*
X176908000Y-91562000D01*
X176919000Y-91573000D01*
X176931000Y-91583000D01*
X176944000Y-91593000D01*
X176957001Y-91602000D01*
X176970000Y-91610000D01*
X176984000Y-91617000D01*
X176998000Y-91624000D01*
X177012000Y-91629999D01*
X177027001Y-91635000D01*
X177042000Y-91640000D01*
X177058000Y-91643000D01*
X177073000Y-91646001D01*
X177089000Y-91648000D01*
X177104000Y-91650000D01*
X177120000Y-91650000D01*
X177495000Y-91650000D01*
X177495000Y-91825000D01*
X177495001Y-92525000D01*
X177495000Y-92542000D01*
X177497000Y-92559000D01*
X177499000Y-92575999D01*
X177502000Y-92593000D01*
X177506000Y-92609000D01*
X177511000Y-92625000D01*
X177517000Y-92640999D01*
X177523001Y-92657000D01*
X177530000Y-92673000D01*
X177539000Y-92688000D01*
X177547000Y-92702000D01*
X177557000Y-92716000D01*
X177567000Y-92730000D01*
X177578000Y-92742001D01*
X177590000Y-92755000D01*
X177603000Y-92767000D01*
X177614999Y-92778000D01*
X177629000Y-92788000D01*
X177643000Y-92798001D01*
X177658000Y-92806000D01*
X177672000Y-92814999D01*
X177688000Y-92822000D01*
X177704000Y-92828000D01*
X177720001Y-92834000D01*
X177736000Y-92839000D01*
X177752000Y-92843000D01*
X177769000Y-92846000D01*
X177786000Y-92848000D01*
X177803000Y-92850000D01*
X177820000Y-92850000D01*
X177837000Y-92850000D01*
X177853999Y-92848000D01*
X177871000Y-92846000D01*
X177888000Y-92842999D01*
X177904000Y-92839000D01*
X177920000Y-92834000D01*
X177936000Y-92828000D01*
X177952000Y-92822000D01*
X177968000Y-92815000D01*
X177982001Y-92806000D01*
X177997000Y-92798000D01*
X178011000Y-92788000D01*
X178025000Y-92778000D01*
X178037000Y-92767000D01*
X178049999Y-92755000D01*
X178062000Y-92742000D01*
X178073000Y-92730000D01*
X178083000Y-92716000D01*
X178093000Y-92701999D01*
X178101000Y-92688000D01*
X178110000Y-92673000D01*
X178117000Y-92657000D01*
X178123000Y-92641000D01*
X178129000Y-92625000D01*
X178134000Y-92609000D01*
X178138000Y-92593000D01*
X178141000Y-92576000D01*
X178143000Y-92559000D01*
X178145000Y-92542000D01*
X178145000Y-92525000D01*
X178145000Y-91199999D01*
X178145000Y-91184000D01*
X178143000Y-91169000D01*
X178141000Y-91153000D01*
X178138000Y-91138000D01*
X178135000Y-91122000D01*
X178130000Y-91107000D01*
X178125000Y-91092000D01*
X178119000Y-91078000D01*
X178112000Y-91063999D01*
X178105000Y-91050000D01*
X178097000Y-91037000D01*
X178088000Y-91024000D01*
X178078000Y-91011000D01*
X178068000Y-90999000D01*
X178057000Y-90988000D01*
X178046000Y-90977000D01*
X178034001Y-90967000D01*
X178021000Y-90957000D01*
X178008000Y-90948000D01*
X177995000Y-90940000D01*
X177981000Y-90932999D01*
X177967000Y-90926000D01*
X177953000Y-90920000D01*
X177938000Y-90915000D01*
X177923000Y-90910000D01*
X177907000Y-90907000D01*
X177892000Y-90904000D01*
X177876000Y-90902000D01*
X177861000Y-90900000D01*
X177845000Y-90899999D01*
X177120000Y-90900000D01*
X177104000Y-90900000D01*
X177089000Y-90902000D01*
X177073000Y-90903999D01*
X177058000Y-90907000D01*
X177042000Y-90910000D01*
X177027001Y-90915000D01*
X177012000Y-90920001D01*
X176998000Y-90926000D01*
X176984000Y-90933000D01*
X176970000Y-90940000D01*
X176957001Y-90948000D01*
X176944000Y-90957000D01*
X176931000Y-90967000D01*
X176919000Y-90977000D01*
X176908000Y-90988000D01*
X176897000Y-90999000D01*
X176887000Y-91011000D01*
X176877000Y-91024000D01*
X176868001Y-91037000D01*
X176860000Y-91050000D01*
X176853000Y-91064000D01*
X176846000Y-91078000D01*
X176840000Y-91092000D01*
X176835001Y-91107000D01*
X176830000Y-91122000D01*
X176827000Y-91138000D01*
X176823999Y-91153000D01*
X176822000Y-91169000D01*
X176820000Y-91184000D01*
X176727893Y-91184000D01*
X176732000Y-91161000D01*
X176739000Y-91133000D01*
X176747000Y-91105000D01*
X176757000Y-91078000D01*
X176768000Y-91051001D01*
X176780000Y-91025000D01*
X176794000Y-91000000D01*
X176809000Y-90975000D01*
X176825000Y-90952000D01*
X176843000Y-90929001D01*
X176861000Y-90907000D01*
X176881000Y-90886000D01*
X176902000Y-90866000D01*
X176924001Y-90848000D01*
X176947000Y-90830000D01*
X176970000Y-90814000D01*
X176995000Y-90799000D01*
X177020000Y-90785000D01*
X177046001Y-90773000D01*
X177073000Y-90762000D01*
X177100000Y-90752000D01*
X177128000Y-90744000D01*
X177155999Y-90737000D01*
X177184000Y-90732000D01*
X177213000Y-90728001D01*
X177241000Y-90725999D01*
X177270000Y-90725000D01*
X177820000Y-90725000D01*
X177851000Y-90725999D01*
G36*
X177851000Y-90725999D02*
G01*
X177883000Y-90728000D01*
X177914000Y-90732000D01*
X177945000Y-90738000D01*
X177975000Y-90745000D01*
X178005000Y-90754000D01*
X178035000Y-90765000D01*
X178064000Y-90777000D01*
X178092000Y-90790000D01*
X178120000Y-90805000D01*
X178147000Y-90822000D01*
X178173000Y-90840000D01*
X178198000Y-90859000D01*
X178221000Y-90879000D01*
X178244000Y-90901000D01*
X178266000Y-90924000D01*
X178286001Y-90947000D01*
X178305000Y-90972000D01*
X178323000Y-90998000D01*
X178340000Y-91025000D01*
X178355000Y-91053000D01*
X178368000Y-91081000D01*
X178380000Y-91110000D01*
X178391000Y-91140000D01*
X178400000Y-91170000D01*
X178406999Y-91200000D01*
X178413000Y-91231000D01*
X178417000Y-91262000D01*
X178419000Y-91294000D01*
X178420000Y-91325000D01*
X178420000Y-92425000D01*
X178419000Y-92456000D01*
X178417000Y-92488000D01*
X178413000Y-92519000D01*
X178407000Y-92550001D01*
X178400000Y-92580000D01*
X178391000Y-92610000D01*
X178380000Y-92640000D01*
X178368000Y-92669000D01*
X178355000Y-92697000D01*
X178340000Y-92725000D01*
X178323000Y-92752000D01*
X178305000Y-92778000D01*
X178286000Y-92803000D01*
X178266000Y-92826000D01*
X178244000Y-92849000D01*
X178221000Y-92871000D01*
X178198000Y-92891000D01*
X178173000Y-92910000D01*
X178147000Y-92928000D01*
X178120000Y-92945000D01*
X178092000Y-92960000D01*
X178064000Y-92973000D01*
X178035000Y-92985000D01*
X178005000Y-92996000D01*
X177975000Y-93005000D01*
X177945001Y-93012000D01*
X177914000Y-93018000D01*
X177883000Y-93022000D01*
X177851000Y-93024000D01*
X177820000Y-93025000D01*
X177789000Y-93024000D01*
X177757001Y-93022000D01*
X177726000Y-93018000D01*
X177695000Y-93012000D01*
X177665000Y-93005000D01*
X177635000Y-92996000D01*
X177605000Y-92985000D01*
X177576000Y-92973000D01*
X177548000Y-92960000D01*
X177520000Y-92945000D01*
X177492999Y-92928000D01*
X177467001Y-92910000D01*
X177442000Y-92891000D01*
X177419000Y-92870999D01*
X177396000Y-92849001D01*
X177374000Y-92826000D01*
X177354000Y-92803000D01*
X177335000Y-92777999D01*
X177317000Y-92752000D01*
X177300000Y-92725000D01*
X177285000Y-92697000D01*
X177272000Y-92669000D01*
X177260000Y-92640000D01*
X177249000Y-92610000D01*
X177240000Y-92580000D01*
X177233000Y-92550000D01*
X177227000Y-92519000D01*
X177223001Y-92488000D01*
X177221000Y-92456000D01*
X177220000Y-92425000D01*
X177220000Y-91825000D01*
X177270000Y-91825000D01*
X177241000Y-91824001D01*
X177213000Y-91821999D01*
X177184000Y-91818000D01*
X177155999Y-91813000D01*
X177128000Y-91806000D01*
X177100000Y-91798000D01*
X177073000Y-91788000D01*
X177046001Y-91777000D01*
X177020000Y-91765000D01*
X176995000Y-91751000D01*
X176970000Y-91736000D01*
X176947000Y-91720000D01*
X176924001Y-91702000D01*
X176902000Y-91684000D01*
X176881000Y-91664000D01*
X176861000Y-91643000D01*
X176843000Y-91620999D01*
X176825000Y-91598000D01*
X176809000Y-91575000D01*
X176794000Y-91550000D01*
X176780000Y-91525000D01*
X176768000Y-91498999D01*
X176757000Y-91472000D01*
X176747000Y-91445000D01*
X176739000Y-91417000D01*
X176732000Y-91389000D01*
X176727000Y-91361000D01*
X176723000Y-91332000D01*
X176721000Y-91304001D01*
X176720000Y-91275000D01*
X176721000Y-91245999D01*
X176723000Y-91218000D01*
X176727000Y-91189000D01*
X176727893Y-91184000D01*
X176820000Y-91184000D01*
X176820000Y-91200000D01*
X176820000Y-91350000D01*
X176820000Y-91366000D01*
X176822000Y-91381000D01*
X176823999Y-91397000D01*
X176827000Y-91412000D01*
X176830000Y-91428000D01*
X176835001Y-91443000D01*
X176840000Y-91458000D01*
X176846000Y-91472000D01*
X176853000Y-91486000D01*
X176860000Y-91500000D01*
X176868001Y-91513000D01*
X176877000Y-91526000D01*
X176887000Y-91539000D01*
X176897000Y-91551000D01*
X176908000Y-91562000D01*
X176919000Y-91573000D01*
X176931000Y-91583000D01*
X176944000Y-91593000D01*
X176957001Y-91602000D01*
X176970000Y-91610000D01*
X176984000Y-91617000D01*
X176998000Y-91624000D01*
X177012000Y-91629999D01*
X177027001Y-91635000D01*
X177042000Y-91640000D01*
X177058000Y-91643000D01*
X177073000Y-91646001D01*
X177089000Y-91648000D01*
X177104000Y-91650000D01*
X177120000Y-91650000D01*
X177495000Y-91650000D01*
X177495000Y-91825000D01*
X177495001Y-92525000D01*
X177495000Y-92542000D01*
X177497000Y-92559000D01*
X177499000Y-92575999D01*
X177502000Y-92593000D01*
X177506000Y-92609000D01*
X177511000Y-92625000D01*
X177517000Y-92640999D01*
X177523001Y-92657000D01*
X177530000Y-92673000D01*
X177539000Y-92688000D01*
X177547000Y-92702000D01*
X177557000Y-92716000D01*
X177567000Y-92730000D01*
X177578000Y-92742001D01*
X177590000Y-92755000D01*
X177603000Y-92767000D01*
X177614999Y-92778000D01*
X177629000Y-92788000D01*
X177643000Y-92798001D01*
X177658000Y-92806000D01*
X177672000Y-92814999D01*
X177688000Y-92822000D01*
X177704000Y-92828000D01*
X177720001Y-92834000D01*
X177736000Y-92839000D01*
X177752000Y-92843000D01*
X177769000Y-92846000D01*
X177786000Y-92848000D01*
X177803000Y-92850000D01*
X177820000Y-92850000D01*
X177837000Y-92850000D01*
X177853999Y-92848000D01*
X177871000Y-92846000D01*
X177888000Y-92842999D01*
X177904000Y-92839000D01*
X177920000Y-92834000D01*
X177936000Y-92828000D01*
X177952000Y-92822000D01*
X177968000Y-92815000D01*
X177982001Y-92806000D01*
X177997000Y-92798000D01*
X178011000Y-92788000D01*
X178025000Y-92778000D01*
X178037000Y-92767000D01*
X178049999Y-92755000D01*
X178062000Y-92742000D01*
X178073000Y-92730000D01*
X178083000Y-92716000D01*
X178093000Y-92701999D01*
X178101000Y-92688000D01*
X178110000Y-92673000D01*
X178117000Y-92657000D01*
X178123000Y-92641000D01*
X178129000Y-92625000D01*
X178134000Y-92609000D01*
X178138000Y-92593000D01*
X178141000Y-92576000D01*
X178143000Y-92559000D01*
X178145000Y-92542000D01*
X178145000Y-92525000D01*
X178145000Y-91199999D01*
X178145000Y-91184000D01*
X178143000Y-91169000D01*
X178141000Y-91153000D01*
X178138000Y-91138000D01*
X178135000Y-91122000D01*
X178130000Y-91107000D01*
X178125000Y-91092000D01*
X178119000Y-91078000D01*
X178112000Y-91063999D01*
X178105000Y-91050000D01*
X178097000Y-91037000D01*
X178088000Y-91024000D01*
X178078000Y-91011000D01*
X178068000Y-90999000D01*
X178057000Y-90988000D01*
X178046000Y-90977000D01*
X178034001Y-90967000D01*
X178021000Y-90957000D01*
X178008000Y-90948000D01*
X177995000Y-90940000D01*
X177981000Y-90932999D01*
X177967000Y-90926000D01*
X177953000Y-90920000D01*
X177938000Y-90915000D01*
X177923000Y-90910000D01*
X177907000Y-90907000D01*
X177892000Y-90904000D01*
X177876000Y-90902000D01*
X177861000Y-90900000D01*
X177845000Y-90899999D01*
X177120000Y-90900000D01*
X177104000Y-90900000D01*
X177089000Y-90902000D01*
X177073000Y-90903999D01*
X177058000Y-90907000D01*
X177042000Y-90910000D01*
X177027001Y-90915000D01*
X177012000Y-90920001D01*
X176998000Y-90926000D01*
X176984000Y-90933000D01*
X176970000Y-90940000D01*
X176957001Y-90948000D01*
X176944000Y-90957000D01*
X176931000Y-90967000D01*
X176919000Y-90977000D01*
X176908000Y-90988000D01*
X176897000Y-90999000D01*
X176887000Y-91011000D01*
X176877000Y-91024000D01*
X176868001Y-91037000D01*
X176860000Y-91050000D01*
X176853000Y-91064000D01*
X176846000Y-91078000D01*
X176840000Y-91092000D01*
X176835001Y-91107000D01*
X176830000Y-91122000D01*
X176827000Y-91138000D01*
X176823999Y-91153000D01*
X176822000Y-91169000D01*
X176820000Y-91184000D01*
X176727893Y-91184000D01*
X176732000Y-91161000D01*
X176739000Y-91133000D01*
X176747000Y-91105000D01*
X176757000Y-91078000D01*
X176768000Y-91051001D01*
X176780000Y-91025000D01*
X176794000Y-91000000D01*
X176809000Y-90975000D01*
X176825000Y-90952000D01*
X176843000Y-90929001D01*
X176861000Y-90907000D01*
X176881000Y-90886000D01*
X176902000Y-90866000D01*
X176924001Y-90848000D01*
X176947000Y-90830000D01*
X176970000Y-90814000D01*
X176995000Y-90799000D01*
X177020000Y-90785000D01*
X177046001Y-90773000D01*
X177073000Y-90762000D01*
X177100000Y-90752000D01*
X177128000Y-90744000D01*
X177155999Y-90737000D01*
X177184000Y-90732000D01*
X177213000Y-90728001D01*
X177241000Y-90725999D01*
X177270000Y-90725000D01*
X177820000Y-90725000D01*
X177851000Y-90725999D01*
G37*
X156280000Y-92425000D02*
X156279000Y-92456000D01*
X156276999Y-92488000D01*
X156273000Y-92519000D01*
X156267000Y-92550000D01*
X156260000Y-92580000D01*
X156251000Y-92610000D01*
X156240000Y-92640000D01*
X156228000Y-92669000D01*
X156215000Y-92697000D01*
X156200000Y-92725000D01*
X156183000Y-92752000D01*
X156165000Y-92777999D01*
X156146000Y-92803000D01*
X156126000Y-92826000D01*
X156104000Y-92849001D01*
X156081000Y-92870999D01*
X156058000Y-92891000D01*
X156032999Y-92910000D01*
X156007001Y-92928000D01*
X155980000Y-92945000D01*
X155952000Y-92960000D01*
X155924000Y-92973000D01*
X155895000Y-92985000D01*
X155865000Y-92996000D01*
X155835000Y-93005000D01*
X155805000Y-93012000D01*
X155774000Y-93018000D01*
X155742999Y-93022000D01*
X155711000Y-93024000D01*
X155680000Y-93025000D01*
X155649000Y-93024000D01*
X155617000Y-93022000D01*
X155586000Y-93018000D01*
X155554999Y-93012000D01*
X155525000Y-93005000D01*
X155495000Y-92996000D01*
X155465000Y-92985000D01*
X155436000Y-92973000D01*
X155408000Y-92960000D01*
X155380000Y-92945000D01*
X155353000Y-92928000D01*
X155327000Y-92910000D01*
X155302000Y-92891000D01*
X155279000Y-92871000D01*
X155256000Y-92849000D01*
X155234000Y-92826000D01*
X155214000Y-92803000D01*
X155195000Y-92778000D01*
X155177000Y-92752000D01*
X155160000Y-92725000D01*
X155145000Y-92697000D01*
X155132000Y-92669000D01*
X155120000Y-92640000D01*
X155109000Y-92610000D01*
X155100000Y-92580000D01*
X155093000Y-92550001D01*
X155087000Y-92519000D01*
X155083000Y-92488000D01*
X155081000Y-92456000D01*
X155080000Y-92425000D01*
X155080000Y-91325000D01*
X155081000Y-91294000D01*
X155083000Y-91262000D01*
X155087000Y-91231000D01*
X155093001Y-91200000D01*
X155096734Y-91184000D01*
X155355000Y-91184000D01*
X155355000Y-91199999D01*
X155355000Y-92525000D01*
X155355000Y-92542000D01*
X155357000Y-92559000D01*
X155359000Y-92576000D01*
X155362000Y-92593000D01*
X155366000Y-92609000D01*
X155371000Y-92625000D01*
X155377000Y-92641000D01*
X155383000Y-92657000D01*
X155390000Y-92673000D01*
X155399000Y-92688000D01*
X155407000Y-92701999D01*
X155417000Y-92716000D01*
X155427000Y-92730000D01*
X155438000Y-92742000D01*
X155450001Y-92755000D01*
X155463000Y-92767000D01*
X155475000Y-92778000D01*
X155489000Y-92788000D01*
X155503000Y-92798000D01*
X155517999Y-92806000D01*
X155532000Y-92815000D01*
X155548000Y-92822000D01*
X155564000Y-92828000D01*
X155580000Y-92834000D01*
X155596000Y-92839000D01*
X155612000Y-92842999D01*
X155629000Y-92846000D01*
X155646001Y-92848000D01*
X155663000Y-92850000D01*
X155680000Y-92850000D01*
X155697000Y-92850000D01*
X155714000Y-92848000D01*
X155731000Y-92846000D01*
X155748000Y-92843000D01*
X155764000Y-92839000D01*
X155779999Y-92834000D01*
X155796000Y-92828000D01*
X155812000Y-92822000D01*
X155828000Y-92814999D01*
X155842000Y-92806000D01*
X155857000Y-92798001D01*
X155871000Y-92788000D01*
X155885001Y-92778000D01*
X155897000Y-92767000D01*
X155910000Y-92755000D01*
X155922000Y-92742001D01*
X155933000Y-92730000D01*
X155943000Y-92716000D01*
X155953000Y-92702000D01*
X155961000Y-92688000D01*
X155970000Y-92673000D01*
X155976999Y-92657000D01*
X155983000Y-92640999D01*
X155989000Y-92625000D01*
X155994000Y-92609000D01*
X155998000Y-92593000D01*
X156001000Y-92575999D01*
X156003000Y-92559000D01*
X156005000Y-92542000D01*
X156004999Y-92525000D01*
X156005000Y-91825000D01*
X156005000Y-91650000D01*
X156380000Y-91650000D01*
X156396000Y-91650000D01*
X156411000Y-91648000D01*
X156427000Y-91646001D01*
X156442000Y-91643000D01*
X156458000Y-91640000D01*
X156472999Y-91635000D01*
X156488000Y-91629999D01*
X156502000Y-91624000D01*
X156516000Y-91617000D01*
X156530000Y-91610000D01*
X156542999Y-91602000D01*
X156556000Y-91593000D01*
X156569000Y-91583000D01*
X156581000Y-91573000D01*
X156592000Y-91562000D01*
X156603000Y-91551000D01*
X156613000Y-91539000D01*
X156623000Y-91526000D01*
X156631999Y-91513000D01*
X156640000Y-91500000D01*
X156647000Y-91486000D01*
X156654000Y-91472000D01*
X156660000Y-91458000D01*
X156664999Y-91443000D01*
X156670000Y-91428000D01*
X156673000Y-91412000D01*
X156676001Y-91397000D01*
X156678000Y-91381000D01*
X156680000Y-91366000D01*
X156680000Y-91350000D01*
X156680000Y-91200000D01*
X156680000Y-91184000D01*
X156678000Y-91169000D01*
X156676001Y-91153000D01*
X156673000Y-91138000D01*
X156670000Y-91122000D01*
X156664999Y-91107000D01*
X156660000Y-91092000D01*
X156654000Y-91078000D01*
X156647000Y-91064000D01*
X156640000Y-91050000D01*
X156631999Y-91037000D01*
X156623000Y-91024000D01*
X156613000Y-91011000D01*
X156603000Y-90999000D01*
X156592000Y-90988000D01*
X156581000Y-90977000D01*
X156569000Y-90967000D01*
X156556000Y-90957000D01*
X156542999Y-90948000D01*
X156530000Y-90940000D01*
X156516000Y-90933000D01*
X156502000Y-90926000D01*
X156488000Y-90920001D01*
X156472999Y-90915000D01*
X156458000Y-90910000D01*
X156442000Y-90907000D01*
X156427000Y-90903999D01*
X156411000Y-90902000D01*
X156396000Y-90900000D01*
X156380000Y-90900000D01*
X155655000Y-90899999D01*
X155639000Y-90900000D01*
X155624000Y-90902000D01*
X155608000Y-90904000D01*
X155593000Y-90907000D01*
X155577000Y-90910000D01*
X155562000Y-90915000D01*
X155547000Y-90920000D01*
X155533000Y-90926000D01*
X155519000Y-90932999D01*
X155505000Y-90940000D01*
X155492000Y-90948000D01*
X155479000Y-90957000D01*
X155465999Y-90967000D01*
X155454000Y-90977000D01*
X155443000Y-90988000D01*
X155432000Y-90999000D01*
X155422000Y-91011000D01*
X155412000Y-91024000D01*
X155403000Y-91037000D01*
X155395000Y-91050000D01*
X155388000Y-91063999D01*
X155381000Y-91078000D01*
X155375000Y-91092000D01*
X155370000Y-91107000D01*
X155365000Y-91122000D01*
X155362000Y-91138000D01*
X155359000Y-91153000D01*
X155357000Y-91169000D01*
X155355000Y-91184000D01*
X155096734Y-91184000D01*
X155100000Y-91170000D01*
X155109000Y-91140000D01*
X155120000Y-91110000D01*
X155132000Y-91081000D01*
X155145000Y-91053000D01*
X155160000Y-91025000D01*
X155177000Y-90998000D01*
X155195000Y-90972000D01*
X155213999Y-90947000D01*
X155234000Y-90924000D01*
X155256000Y-90901000D01*
X155279000Y-90879000D01*
X155302000Y-90859000D01*
X155327000Y-90840000D01*
X155353000Y-90822000D01*
X155380000Y-90805000D01*
X155408000Y-90790000D01*
X155436000Y-90777000D01*
X155465000Y-90765000D01*
X155495000Y-90754000D01*
X155525000Y-90745000D01*
X155555000Y-90738000D01*
X155586000Y-90732000D01*
X155617000Y-90728000D01*
X155649000Y-90725999D01*
X155680000Y-90725000D01*
X156230000Y-90725000D01*
X156259000Y-90725999D01*
X156287000Y-90728001D01*
X156316000Y-90732000D01*
X156344001Y-90737000D01*
X156372000Y-90744000D01*
X156400000Y-90752000D01*
X156427000Y-90762000D01*
X156453999Y-90773000D01*
X156480000Y-90785000D01*
X156505000Y-90799000D01*
X156530000Y-90814000D01*
X156553000Y-90830000D01*
X156575999Y-90848000D01*
X156598000Y-90866000D01*
X156619000Y-90886000D01*
X156639000Y-90907000D01*
X156657000Y-90929001D01*
X156675000Y-90952000D01*
X156691000Y-90975000D01*
X156706000Y-91000000D01*
X156720000Y-91025000D01*
X156732000Y-91051001D01*
X156743000Y-91078000D01*
X156753000Y-91105000D01*
X156761000Y-91133000D01*
X156768000Y-91161000D01*
X156773000Y-91189000D01*
X156777000Y-91218000D01*
X156779000Y-91245999D01*
X156780000Y-91275000D01*
X156779000Y-91304001D01*
X156777000Y-91332000D01*
X156773000Y-91361000D01*
X156768000Y-91389000D01*
X156761000Y-91417000D01*
X156753000Y-91445000D01*
X156743000Y-91472000D01*
X156732000Y-91498999D01*
X156720000Y-91525000D01*
X156706000Y-91550000D01*
X156691000Y-91575000D01*
X156675000Y-91598000D01*
X156657000Y-91620999D01*
X156639000Y-91643000D01*
X156619000Y-91664000D01*
X156598000Y-91684000D01*
X156575999Y-91702000D01*
X156553000Y-91720000D01*
X156530000Y-91736000D01*
X156505000Y-91751000D01*
X156480000Y-91765000D01*
X156453999Y-91777000D01*
X156427000Y-91788000D01*
X156400000Y-91798000D01*
X156372000Y-91806000D01*
X156344001Y-91813000D01*
X156316000Y-91818000D01*
X156287000Y-91821999D01*
X156259000Y-91824001D01*
X156230000Y-91825000D01*
X156280000Y-91825000D01*
X156280000Y-92425000D01*
G36*
X156280000Y-92425000D02*
G01*
X156279000Y-92456000D01*
X156276999Y-92488000D01*
X156273000Y-92519000D01*
X156267000Y-92550000D01*
X156260000Y-92580000D01*
X156251000Y-92610000D01*
X156240000Y-92640000D01*
X156228000Y-92669000D01*
X156215000Y-92697000D01*
X156200000Y-92725000D01*
X156183000Y-92752000D01*
X156165000Y-92777999D01*
X156146000Y-92803000D01*
X156126000Y-92826000D01*
X156104000Y-92849001D01*
X156081000Y-92870999D01*
X156058000Y-92891000D01*
X156032999Y-92910000D01*
X156007001Y-92928000D01*
X155980000Y-92945000D01*
X155952000Y-92960000D01*
X155924000Y-92973000D01*
X155895000Y-92985000D01*
X155865000Y-92996000D01*
X155835000Y-93005000D01*
X155805000Y-93012000D01*
X155774000Y-93018000D01*
X155742999Y-93022000D01*
X155711000Y-93024000D01*
X155680000Y-93025000D01*
X155649000Y-93024000D01*
X155617000Y-93022000D01*
X155586000Y-93018000D01*
X155554999Y-93012000D01*
X155525000Y-93005000D01*
X155495000Y-92996000D01*
X155465000Y-92985000D01*
X155436000Y-92973000D01*
X155408000Y-92960000D01*
X155380000Y-92945000D01*
X155353000Y-92928000D01*
X155327000Y-92910000D01*
X155302000Y-92891000D01*
X155279000Y-92871000D01*
X155256000Y-92849000D01*
X155234000Y-92826000D01*
X155214000Y-92803000D01*
X155195000Y-92778000D01*
X155177000Y-92752000D01*
X155160000Y-92725000D01*
X155145000Y-92697000D01*
X155132000Y-92669000D01*
X155120000Y-92640000D01*
X155109000Y-92610000D01*
X155100000Y-92580000D01*
X155093000Y-92550001D01*
X155087000Y-92519000D01*
X155083000Y-92488000D01*
X155081000Y-92456000D01*
X155080000Y-92425000D01*
X155080000Y-91325000D01*
X155081000Y-91294000D01*
X155083000Y-91262000D01*
X155087000Y-91231000D01*
X155093001Y-91200000D01*
X155096734Y-91184000D01*
X155355000Y-91184000D01*
X155355000Y-91199999D01*
X155355000Y-92525000D01*
X155355000Y-92542000D01*
X155357000Y-92559000D01*
X155359000Y-92576000D01*
X155362000Y-92593000D01*
X155366000Y-92609000D01*
X155371000Y-92625000D01*
X155377000Y-92641000D01*
X155383000Y-92657000D01*
X155390000Y-92673000D01*
X155399000Y-92688000D01*
X155407000Y-92701999D01*
X155417000Y-92716000D01*
X155427000Y-92730000D01*
X155438000Y-92742000D01*
X155450001Y-92755000D01*
X155463000Y-92767000D01*
X155475000Y-92778000D01*
X155489000Y-92788000D01*
X155503000Y-92798000D01*
X155517999Y-92806000D01*
X155532000Y-92815000D01*
X155548000Y-92822000D01*
X155564000Y-92828000D01*
X155580000Y-92834000D01*
X155596000Y-92839000D01*
X155612000Y-92842999D01*
X155629000Y-92846000D01*
X155646001Y-92848000D01*
X155663000Y-92850000D01*
X155680000Y-92850000D01*
X155697000Y-92850000D01*
X155714000Y-92848000D01*
X155731000Y-92846000D01*
X155748000Y-92843000D01*
X155764000Y-92839000D01*
X155779999Y-92834000D01*
X155796000Y-92828000D01*
X155812000Y-92822000D01*
X155828000Y-92814999D01*
X155842000Y-92806000D01*
X155857000Y-92798001D01*
X155871000Y-92788000D01*
X155885001Y-92778000D01*
X155897000Y-92767000D01*
X155910000Y-92755000D01*
X155922000Y-92742001D01*
X155933000Y-92730000D01*
X155943000Y-92716000D01*
X155953000Y-92702000D01*
X155961000Y-92688000D01*
X155970000Y-92673000D01*
X155976999Y-92657000D01*
X155983000Y-92640999D01*
X155989000Y-92625000D01*
X155994000Y-92609000D01*
X155998000Y-92593000D01*
X156001000Y-92575999D01*
X156003000Y-92559000D01*
X156005000Y-92542000D01*
X156004999Y-92525000D01*
X156005000Y-91825000D01*
X156005000Y-91650000D01*
X156380000Y-91650000D01*
X156396000Y-91650000D01*
X156411000Y-91648000D01*
X156427000Y-91646001D01*
X156442000Y-91643000D01*
X156458000Y-91640000D01*
X156472999Y-91635000D01*
X156488000Y-91629999D01*
X156502000Y-91624000D01*
X156516000Y-91617000D01*
X156530000Y-91610000D01*
X156542999Y-91602000D01*
X156556000Y-91593000D01*
X156569000Y-91583000D01*
X156581000Y-91573000D01*
X156592000Y-91562000D01*
X156603000Y-91551000D01*
X156613000Y-91539000D01*
X156623000Y-91526000D01*
X156631999Y-91513000D01*
X156640000Y-91500000D01*
X156647000Y-91486000D01*
X156654000Y-91472000D01*
X156660000Y-91458000D01*
X156664999Y-91443000D01*
X156670000Y-91428000D01*
X156673000Y-91412000D01*
X156676001Y-91397000D01*
X156678000Y-91381000D01*
X156680000Y-91366000D01*
X156680000Y-91350000D01*
X156680000Y-91200000D01*
X156680000Y-91184000D01*
X156678000Y-91169000D01*
X156676001Y-91153000D01*
X156673000Y-91138000D01*
X156670000Y-91122000D01*
X156664999Y-91107000D01*
X156660000Y-91092000D01*
X156654000Y-91078000D01*
X156647000Y-91064000D01*
X156640000Y-91050000D01*
X156631999Y-91037000D01*
X156623000Y-91024000D01*
X156613000Y-91011000D01*
X156603000Y-90999000D01*
X156592000Y-90988000D01*
X156581000Y-90977000D01*
X156569000Y-90967000D01*
X156556000Y-90957000D01*
X156542999Y-90948000D01*
X156530000Y-90940000D01*
X156516000Y-90933000D01*
X156502000Y-90926000D01*
X156488000Y-90920001D01*
X156472999Y-90915000D01*
X156458000Y-90910000D01*
X156442000Y-90907000D01*
X156427000Y-90903999D01*
X156411000Y-90902000D01*
X156396000Y-90900000D01*
X156380000Y-90900000D01*
X155655000Y-90899999D01*
X155639000Y-90900000D01*
X155624000Y-90902000D01*
X155608000Y-90904000D01*
X155593000Y-90907000D01*
X155577000Y-90910000D01*
X155562000Y-90915000D01*
X155547000Y-90920000D01*
X155533000Y-90926000D01*
X155519000Y-90932999D01*
X155505000Y-90940000D01*
X155492000Y-90948000D01*
X155479000Y-90957000D01*
X155465999Y-90967000D01*
X155454000Y-90977000D01*
X155443000Y-90988000D01*
X155432000Y-90999000D01*
X155422000Y-91011000D01*
X155412000Y-91024000D01*
X155403000Y-91037000D01*
X155395000Y-91050000D01*
X155388000Y-91063999D01*
X155381000Y-91078000D01*
X155375000Y-91092000D01*
X155370000Y-91107000D01*
X155365000Y-91122000D01*
X155362000Y-91138000D01*
X155359000Y-91153000D01*
X155357000Y-91169000D01*
X155355000Y-91184000D01*
X155096734Y-91184000D01*
X155100000Y-91170000D01*
X155109000Y-91140000D01*
X155120000Y-91110000D01*
X155132000Y-91081000D01*
X155145000Y-91053000D01*
X155160000Y-91025000D01*
X155177000Y-90998000D01*
X155195000Y-90972000D01*
X155213999Y-90947000D01*
X155234000Y-90924000D01*
X155256000Y-90901000D01*
X155279000Y-90879000D01*
X155302000Y-90859000D01*
X155327000Y-90840000D01*
X155353000Y-90822000D01*
X155380000Y-90805000D01*
X155408000Y-90790000D01*
X155436000Y-90777000D01*
X155465000Y-90765000D01*
X155495000Y-90754000D01*
X155525000Y-90745000D01*
X155555000Y-90738000D01*
X155586000Y-90732000D01*
X155617000Y-90728000D01*
X155649000Y-90725999D01*
X155680000Y-90725000D01*
X156230000Y-90725000D01*
X156259000Y-90725999D01*
X156287000Y-90728001D01*
X156316000Y-90732000D01*
X156344001Y-90737000D01*
X156372000Y-90744000D01*
X156400000Y-90752000D01*
X156427000Y-90762000D01*
X156453999Y-90773000D01*
X156480000Y-90785000D01*
X156505000Y-90799000D01*
X156530000Y-90814000D01*
X156553000Y-90830000D01*
X156575999Y-90848000D01*
X156598000Y-90866000D01*
X156619000Y-90886000D01*
X156639000Y-90907000D01*
X156657000Y-90929001D01*
X156675000Y-90952000D01*
X156691000Y-90975000D01*
X156706000Y-91000000D01*
X156720000Y-91025000D01*
X156732000Y-91051001D01*
X156743000Y-91078000D01*
X156753000Y-91105000D01*
X156761000Y-91133000D01*
X156768000Y-91161000D01*
X156773000Y-91189000D01*
X156777000Y-91218000D01*
X156779000Y-91245999D01*
X156780000Y-91275000D01*
X156779000Y-91304001D01*
X156777000Y-91332000D01*
X156773000Y-91361000D01*
X156768000Y-91389000D01*
X156761000Y-91417000D01*
X156753000Y-91445000D01*
X156743000Y-91472000D01*
X156732000Y-91498999D01*
X156720000Y-91525000D01*
X156706000Y-91550000D01*
X156691000Y-91575000D01*
X156675000Y-91598000D01*
X156657000Y-91620999D01*
X156639000Y-91643000D01*
X156619000Y-91664000D01*
X156598000Y-91684000D01*
X156575999Y-91702000D01*
X156553000Y-91720000D01*
X156530000Y-91736000D01*
X156505000Y-91751000D01*
X156480000Y-91765000D01*
X156453999Y-91777000D01*
X156427000Y-91788000D01*
X156400000Y-91798000D01*
X156372000Y-91806000D01*
X156344001Y-91813000D01*
X156316000Y-91818000D01*
X156287000Y-91821999D01*
X156259000Y-91824001D01*
X156230000Y-91825000D01*
X156280000Y-91825000D01*
X156280000Y-92425000D01*
G37*
X164351000Y-90725999D02*
X164383000Y-90728000D01*
X164414000Y-90732000D01*
X164445000Y-90738000D01*
X164475000Y-90745000D01*
X164505000Y-90754000D01*
X164535000Y-90765000D01*
X164564000Y-90777000D01*
X164592000Y-90790000D01*
X164620000Y-90805000D01*
X164647000Y-90822000D01*
X164673000Y-90840000D01*
X164698000Y-90859000D01*
X164721000Y-90879000D01*
X164744000Y-90901000D01*
X164766000Y-90924000D01*
X164786001Y-90947000D01*
X164805000Y-90972000D01*
X164823000Y-90998000D01*
X164840000Y-91025000D01*
X164855000Y-91053000D01*
X164868000Y-91081000D01*
X164880000Y-91110000D01*
X164891000Y-91140000D01*
X164900000Y-91170000D01*
X164906999Y-91200000D01*
X164913000Y-91231000D01*
X164917000Y-91262000D01*
X164919000Y-91294000D01*
X164920000Y-91325000D01*
X164920000Y-92425000D01*
X164919000Y-92456000D01*
X164917000Y-92488000D01*
X164913000Y-92519000D01*
X164907000Y-92550001D01*
X164900000Y-92580000D01*
X164891000Y-92610000D01*
X164880000Y-92640000D01*
X164868000Y-92669000D01*
X164855000Y-92697000D01*
X164840000Y-92725000D01*
X164823000Y-92752000D01*
X164805000Y-92778000D01*
X164786000Y-92803000D01*
X164766000Y-92826000D01*
X164744000Y-92849000D01*
X164721000Y-92871000D01*
X164698000Y-92891000D01*
X164673000Y-92910000D01*
X164647000Y-92928000D01*
X164620000Y-92945000D01*
X164592000Y-92960000D01*
X164564000Y-92973000D01*
X164535000Y-92985000D01*
X164505000Y-92996000D01*
X164475000Y-93005000D01*
X164445001Y-93012000D01*
X164414000Y-93018000D01*
X164383000Y-93022000D01*
X164351000Y-93024000D01*
X164320000Y-93025000D01*
X164289000Y-93024000D01*
X164257001Y-93022000D01*
X164226000Y-93018000D01*
X164195000Y-93012000D01*
X164165000Y-93005000D01*
X164135000Y-92996000D01*
X164105000Y-92985000D01*
X164076000Y-92973000D01*
X164048000Y-92960000D01*
X164020000Y-92945000D01*
X163992999Y-92928000D01*
X163967001Y-92910000D01*
X163942000Y-92891000D01*
X163919000Y-92870999D01*
X163896000Y-92849001D01*
X163874000Y-92826000D01*
X163854000Y-92803000D01*
X163835000Y-92777999D01*
X163817000Y-92752000D01*
X163800000Y-92725000D01*
X163785000Y-92697000D01*
X163772000Y-92669000D01*
X163760000Y-92640000D01*
X163749000Y-92610000D01*
X163740000Y-92580000D01*
X163733000Y-92550000D01*
X163727000Y-92519000D01*
X163723001Y-92488000D01*
X163721000Y-92456000D01*
X163720000Y-92425000D01*
X163720000Y-91825000D01*
X163770000Y-91825000D01*
X163741000Y-91824001D01*
X163713000Y-91821999D01*
X163684000Y-91818000D01*
X163655999Y-91813000D01*
X163628000Y-91806000D01*
X163600000Y-91798000D01*
X163573000Y-91788000D01*
X163546001Y-91777000D01*
X163520000Y-91765000D01*
X163495000Y-91751000D01*
X163470000Y-91736000D01*
X163447000Y-91720000D01*
X163424001Y-91702000D01*
X163402000Y-91684000D01*
X163381000Y-91664000D01*
X163361000Y-91643000D01*
X163343000Y-91620999D01*
X163325000Y-91598000D01*
X163309000Y-91575000D01*
X163294000Y-91550000D01*
X163280000Y-91525000D01*
X163268000Y-91498999D01*
X163257000Y-91472000D01*
X163247000Y-91445000D01*
X163239000Y-91417000D01*
X163232000Y-91389000D01*
X163227000Y-91361000D01*
X163223000Y-91332000D01*
X163221000Y-91304001D01*
X163220000Y-91275000D01*
X163221000Y-91245999D01*
X163223000Y-91218000D01*
X163227000Y-91189000D01*
X163227893Y-91184000D01*
X163320000Y-91184000D01*
X163320000Y-91200000D01*
X163320000Y-91350000D01*
X163320000Y-91366000D01*
X163322000Y-91381000D01*
X163323999Y-91397000D01*
X163327000Y-91412000D01*
X163330000Y-91428000D01*
X163335001Y-91443000D01*
X163340000Y-91458000D01*
X163346000Y-91472000D01*
X163353000Y-91486000D01*
X163360000Y-91500000D01*
X163368001Y-91513000D01*
X163377000Y-91526000D01*
X163387000Y-91539000D01*
X163397000Y-91551000D01*
X163408000Y-91562000D01*
X163419000Y-91573000D01*
X163431000Y-91583000D01*
X163444000Y-91593000D01*
X163457001Y-91602000D01*
X163470000Y-91610000D01*
X163484000Y-91617000D01*
X163498000Y-91624000D01*
X163512000Y-91629999D01*
X163527001Y-91635000D01*
X163542000Y-91640000D01*
X163558000Y-91643000D01*
X163573000Y-91646001D01*
X163589000Y-91648000D01*
X163604000Y-91650000D01*
X163620000Y-91650000D01*
X163995000Y-91650000D01*
X163995000Y-91825000D01*
X163995001Y-92525000D01*
X163995000Y-92542000D01*
X163997000Y-92559000D01*
X163999000Y-92575999D01*
X164002000Y-92593000D01*
X164006000Y-92609000D01*
X164011000Y-92625000D01*
X164017000Y-92640999D01*
X164023001Y-92657000D01*
X164030000Y-92673000D01*
X164039000Y-92688000D01*
X164047000Y-92702000D01*
X164057000Y-92716000D01*
X164067000Y-92730000D01*
X164078000Y-92742001D01*
X164090000Y-92755000D01*
X164103000Y-92767000D01*
X164114999Y-92778000D01*
X164129000Y-92788000D01*
X164143000Y-92798001D01*
X164158000Y-92806000D01*
X164172000Y-92814999D01*
X164188000Y-92822000D01*
X164204000Y-92828000D01*
X164220001Y-92834000D01*
X164236000Y-92839000D01*
X164252000Y-92843000D01*
X164269000Y-92846000D01*
X164286000Y-92848000D01*
X164303000Y-92850000D01*
X164320000Y-92850000D01*
X164337000Y-92850000D01*
X164353999Y-92848000D01*
X164371000Y-92846000D01*
X164388000Y-92842999D01*
X164404000Y-92839000D01*
X164420000Y-92834000D01*
X164436000Y-92828000D01*
X164452000Y-92822000D01*
X164468000Y-92815000D01*
X164482001Y-92806000D01*
X164497000Y-92798000D01*
X164511000Y-92788000D01*
X164525000Y-92778000D01*
X164537000Y-92767000D01*
X164549999Y-92755000D01*
X164562000Y-92742000D01*
X164573000Y-92730000D01*
X164583000Y-92716000D01*
X164593000Y-92701999D01*
X164601000Y-92688000D01*
X164610000Y-92673000D01*
X164617000Y-92657000D01*
X164623000Y-92641000D01*
X164629000Y-92625000D01*
X164634000Y-92609000D01*
X164638000Y-92593000D01*
X164641000Y-92576000D01*
X164643000Y-92559000D01*
X164645000Y-92542000D01*
X164645000Y-92525000D01*
X164645000Y-91199999D01*
X164645000Y-91184000D01*
X164643000Y-91169000D01*
X164641000Y-91153000D01*
X164638000Y-91138000D01*
X164635000Y-91122000D01*
X164630000Y-91107000D01*
X164625000Y-91092000D01*
X164619000Y-91078000D01*
X164612000Y-91063999D01*
X164605000Y-91050000D01*
X164597000Y-91037000D01*
X164588000Y-91024000D01*
X164578000Y-91011000D01*
X164568000Y-90999000D01*
X164557000Y-90988000D01*
X164546000Y-90977000D01*
X164534001Y-90967000D01*
X164521000Y-90957000D01*
X164508000Y-90948000D01*
X164495000Y-90940000D01*
X164481000Y-90932999D01*
X164467000Y-90926000D01*
X164453000Y-90920000D01*
X164438000Y-90915000D01*
X164423000Y-90910000D01*
X164407000Y-90907000D01*
X164392000Y-90904000D01*
X164376000Y-90902000D01*
X164361000Y-90900000D01*
X164345000Y-90899999D01*
X163620000Y-90900000D01*
X163604000Y-90900000D01*
X163589000Y-90902000D01*
X163573000Y-90903999D01*
X163558000Y-90907000D01*
X163542000Y-90910000D01*
X163527001Y-90915000D01*
X163512000Y-90920001D01*
X163498000Y-90926000D01*
X163484000Y-90933000D01*
X163470000Y-90940000D01*
X163457001Y-90948000D01*
X163444000Y-90957000D01*
X163431000Y-90967000D01*
X163419000Y-90977000D01*
X163408000Y-90988000D01*
X163397000Y-90999000D01*
X163387000Y-91011000D01*
X163377000Y-91024000D01*
X163368001Y-91037000D01*
X163360000Y-91050000D01*
X163353000Y-91064000D01*
X163346000Y-91078000D01*
X163340000Y-91092000D01*
X163335001Y-91107000D01*
X163330000Y-91122000D01*
X163327000Y-91138000D01*
X163323999Y-91153000D01*
X163322000Y-91169000D01*
X163320000Y-91184000D01*
X163227893Y-91184000D01*
X163232000Y-91161000D01*
X163239000Y-91133000D01*
X163247000Y-91105000D01*
X163257000Y-91078000D01*
X163268000Y-91051001D01*
X163280000Y-91025000D01*
X163294000Y-91000000D01*
X163309000Y-90975000D01*
X163325000Y-90952000D01*
X163343000Y-90929001D01*
X163361000Y-90907000D01*
X163381000Y-90886000D01*
X163402000Y-90866000D01*
X163424001Y-90848000D01*
X163447000Y-90830000D01*
X163470000Y-90814000D01*
X163495000Y-90799000D01*
X163520000Y-90785000D01*
X163546001Y-90773000D01*
X163573000Y-90762000D01*
X163600000Y-90752000D01*
X163628000Y-90744000D01*
X163655999Y-90737000D01*
X163684000Y-90732000D01*
X163713000Y-90728001D01*
X163741000Y-90725999D01*
X163770000Y-90725000D01*
X164320000Y-90725000D01*
X164351000Y-90725999D01*
G36*
X164351000Y-90725999D02*
G01*
X164383000Y-90728000D01*
X164414000Y-90732000D01*
X164445000Y-90738000D01*
X164475000Y-90745000D01*
X164505000Y-90754000D01*
X164535000Y-90765000D01*
X164564000Y-90777000D01*
X164592000Y-90790000D01*
X164620000Y-90805000D01*
X164647000Y-90822000D01*
X164673000Y-90840000D01*
X164698000Y-90859000D01*
X164721000Y-90879000D01*
X164744000Y-90901000D01*
X164766000Y-90924000D01*
X164786001Y-90947000D01*
X164805000Y-90972000D01*
X164823000Y-90998000D01*
X164840000Y-91025000D01*
X164855000Y-91053000D01*
X164868000Y-91081000D01*
X164880000Y-91110000D01*
X164891000Y-91140000D01*
X164900000Y-91170000D01*
X164906999Y-91200000D01*
X164913000Y-91231000D01*
X164917000Y-91262000D01*
X164919000Y-91294000D01*
X164920000Y-91325000D01*
X164920000Y-92425000D01*
X164919000Y-92456000D01*
X164917000Y-92488000D01*
X164913000Y-92519000D01*
X164907000Y-92550001D01*
X164900000Y-92580000D01*
X164891000Y-92610000D01*
X164880000Y-92640000D01*
X164868000Y-92669000D01*
X164855000Y-92697000D01*
X164840000Y-92725000D01*
X164823000Y-92752000D01*
X164805000Y-92778000D01*
X164786000Y-92803000D01*
X164766000Y-92826000D01*
X164744000Y-92849000D01*
X164721000Y-92871000D01*
X164698000Y-92891000D01*
X164673000Y-92910000D01*
X164647000Y-92928000D01*
X164620000Y-92945000D01*
X164592000Y-92960000D01*
X164564000Y-92973000D01*
X164535000Y-92985000D01*
X164505000Y-92996000D01*
X164475000Y-93005000D01*
X164445001Y-93012000D01*
X164414000Y-93018000D01*
X164383000Y-93022000D01*
X164351000Y-93024000D01*
X164320000Y-93025000D01*
X164289000Y-93024000D01*
X164257001Y-93022000D01*
X164226000Y-93018000D01*
X164195000Y-93012000D01*
X164165000Y-93005000D01*
X164135000Y-92996000D01*
X164105000Y-92985000D01*
X164076000Y-92973000D01*
X164048000Y-92960000D01*
X164020000Y-92945000D01*
X163992999Y-92928000D01*
X163967001Y-92910000D01*
X163942000Y-92891000D01*
X163919000Y-92870999D01*
X163896000Y-92849001D01*
X163874000Y-92826000D01*
X163854000Y-92803000D01*
X163835000Y-92777999D01*
X163817000Y-92752000D01*
X163800000Y-92725000D01*
X163785000Y-92697000D01*
X163772000Y-92669000D01*
X163760000Y-92640000D01*
X163749000Y-92610000D01*
X163740000Y-92580000D01*
X163733000Y-92550000D01*
X163727000Y-92519000D01*
X163723001Y-92488000D01*
X163721000Y-92456000D01*
X163720000Y-92425000D01*
X163720000Y-91825000D01*
X163770000Y-91825000D01*
X163741000Y-91824001D01*
X163713000Y-91821999D01*
X163684000Y-91818000D01*
X163655999Y-91813000D01*
X163628000Y-91806000D01*
X163600000Y-91798000D01*
X163573000Y-91788000D01*
X163546001Y-91777000D01*
X163520000Y-91765000D01*
X163495000Y-91751000D01*
X163470000Y-91736000D01*
X163447000Y-91720000D01*
X163424001Y-91702000D01*
X163402000Y-91684000D01*
X163381000Y-91664000D01*
X163361000Y-91643000D01*
X163343000Y-91620999D01*
X163325000Y-91598000D01*
X163309000Y-91575000D01*
X163294000Y-91550000D01*
X163280000Y-91525000D01*
X163268000Y-91498999D01*
X163257000Y-91472000D01*
X163247000Y-91445000D01*
X163239000Y-91417000D01*
X163232000Y-91389000D01*
X163227000Y-91361000D01*
X163223000Y-91332000D01*
X163221000Y-91304001D01*
X163220000Y-91275000D01*
X163221000Y-91245999D01*
X163223000Y-91218000D01*
X163227000Y-91189000D01*
X163227893Y-91184000D01*
X163320000Y-91184000D01*
X163320000Y-91200000D01*
X163320000Y-91350000D01*
X163320000Y-91366000D01*
X163322000Y-91381000D01*
X163323999Y-91397000D01*
X163327000Y-91412000D01*
X163330000Y-91428000D01*
X163335001Y-91443000D01*
X163340000Y-91458000D01*
X163346000Y-91472000D01*
X163353000Y-91486000D01*
X163360000Y-91500000D01*
X163368001Y-91513000D01*
X163377000Y-91526000D01*
X163387000Y-91539000D01*
X163397000Y-91551000D01*
X163408000Y-91562000D01*
X163419000Y-91573000D01*
X163431000Y-91583000D01*
X163444000Y-91593000D01*
X163457001Y-91602000D01*
X163470000Y-91610000D01*
X163484000Y-91617000D01*
X163498000Y-91624000D01*
X163512000Y-91629999D01*
X163527001Y-91635000D01*
X163542000Y-91640000D01*
X163558000Y-91643000D01*
X163573000Y-91646001D01*
X163589000Y-91648000D01*
X163604000Y-91650000D01*
X163620000Y-91650000D01*
X163995000Y-91650000D01*
X163995000Y-91825000D01*
X163995001Y-92525000D01*
X163995000Y-92542000D01*
X163997000Y-92559000D01*
X163999000Y-92575999D01*
X164002000Y-92593000D01*
X164006000Y-92609000D01*
X164011000Y-92625000D01*
X164017000Y-92640999D01*
X164023001Y-92657000D01*
X164030000Y-92673000D01*
X164039000Y-92688000D01*
X164047000Y-92702000D01*
X164057000Y-92716000D01*
X164067000Y-92730000D01*
X164078000Y-92742001D01*
X164090000Y-92755000D01*
X164103000Y-92767000D01*
X164114999Y-92778000D01*
X164129000Y-92788000D01*
X164143000Y-92798001D01*
X164158000Y-92806000D01*
X164172000Y-92814999D01*
X164188000Y-92822000D01*
X164204000Y-92828000D01*
X164220001Y-92834000D01*
X164236000Y-92839000D01*
X164252000Y-92843000D01*
X164269000Y-92846000D01*
X164286000Y-92848000D01*
X164303000Y-92850000D01*
X164320000Y-92850000D01*
X164337000Y-92850000D01*
X164353999Y-92848000D01*
X164371000Y-92846000D01*
X164388000Y-92842999D01*
X164404000Y-92839000D01*
X164420000Y-92834000D01*
X164436000Y-92828000D01*
X164452000Y-92822000D01*
X164468000Y-92815000D01*
X164482001Y-92806000D01*
X164497000Y-92798000D01*
X164511000Y-92788000D01*
X164525000Y-92778000D01*
X164537000Y-92767000D01*
X164549999Y-92755000D01*
X164562000Y-92742000D01*
X164573000Y-92730000D01*
X164583000Y-92716000D01*
X164593000Y-92701999D01*
X164601000Y-92688000D01*
X164610000Y-92673000D01*
X164617000Y-92657000D01*
X164623000Y-92641000D01*
X164629000Y-92625000D01*
X164634000Y-92609000D01*
X164638000Y-92593000D01*
X164641000Y-92576000D01*
X164643000Y-92559000D01*
X164645000Y-92542000D01*
X164645000Y-92525000D01*
X164645000Y-91199999D01*
X164645000Y-91184000D01*
X164643000Y-91169000D01*
X164641000Y-91153000D01*
X164638000Y-91138000D01*
X164635000Y-91122000D01*
X164630000Y-91107000D01*
X164625000Y-91092000D01*
X164619000Y-91078000D01*
X164612000Y-91063999D01*
X164605000Y-91050000D01*
X164597000Y-91037000D01*
X164588000Y-91024000D01*
X164578000Y-91011000D01*
X164568000Y-90999000D01*
X164557000Y-90988000D01*
X164546000Y-90977000D01*
X164534001Y-90967000D01*
X164521000Y-90957000D01*
X164508000Y-90948000D01*
X164495000Y-90940000D01*
X164481000Y-90932999D01*
X164467000Y-90926000D01*
X164453000Y-90920000D01*
X164438000Y-90915000D01*
X164423000Y-90910000D01*
X164407000Y-90907000D01*
X164392000Y-90904000D01*
X164376000Y-90902000D01*
X164361000Y-90900000D01*
X164345000Y-90899999D01*
X163620000Y-90900000D01*
X163604000Y-90900000D01*
X163589000Y-90902000D01*
X163573000Y-90903999D01*
X163558000Y-90907000D01*
X163542000Y-90910000D01*
X163527001Y-90915000D01*
X163512000Y-90920001D01*
X163498000Y-90926000D01*
X163484000Y-90933000D01*
X163470000Y-90940000D01*
X163457001Y-90948000D01*
X163444000Y-90957000D01*
X163431000Y-90967000D01*
X163419000Y-90977000D01*
X163408000Y-90988000D01*
X163397000Y-90999000D01*
X163387000Y-91011000D01*
X163377000Y-91024000D01*
X163368001Y-91037000D01*
X163360000Y-91050000D01*
X163353000Y-91064000D01*
X163346000Y-91078000D01*
X163340000Y-91092000D01*
X163335001Y-91107000D01*
X163330000Y-91122000D01*
X163327000Y-91138000D01*
X163323999Y-91153000D01*
X163322000Y-91169000D01*
X163320000Y-91184000D01*
X163227893Y-91184000D01*
X163232000Y-91161000D01*
X163239000Y-91133000D01*
X163247000Y-91105000D01*
X163257000Y-91078000D01*
X163268000Y-91051001D01*
X163280000Y-91025000D01*
X163294000Y-91000000D01*
X163309000Y-90975000D01*
X163325000Y-90952000D01*
X163343000Y-90929001D01*
X163361000Y-90907000D01*
X163381000Y-90886000D01*
X163402000Y-90866000D01*
X163424001Y-90848000D01*
X163447000Y-90830000D01*
X163470000Y-90814000D01*
X163495000Y-90799000D01*
X163520000Y-90785000D01*
X163546001Y-90773000D01*
X163573000Y-90762000D01*
X163600000Y-90752000D01*
X163628000Y-90744000D01*
X163655999Y-90737000D01*
X163684000Y-90732000D01*
X163713000Y-90728001D01*
X163741000Y-90725999D01*
X163770000Y-90725000D01*
X164320000Y-90725000D01*
X164351000Y-90725999D01*
G37*
%TD*%
D11*
%TO.C,C10*%
X169212500Y-99902496D03*
X167662500Y-99902496D03*
%TD*%
D12*
%TO.C,C34*%
X101250000Y-122767501D03*
X101250000Y-121807501D03*
%TD*%
D13*
%TO.C,C41*%
X101250000Y-119807501D03*
X101250000Y-120767501D03*
%TD*%
%TO.C,C63*%
X131000000Y-119807501D03*
X131000000Y-120767501D03*
%TD*%
D12*
%TO.C,C68*%
X130999999Y-122767501D03*
X130999999Y-121807501D03*
%TD*%
M02*
