M48
; DRILL file KiCad 10.0.1 date 2026-08-20T14:16:09
; FORMAT={-:-/ absolute / metric / decimal}
; #@! TF.CreationDate,2026-08-20T14:16:09-04:00
; #@! TF.GenerationSoftware,Kicad,Pcbnew,10.0.1
; #@! TF.FileFunction,Plated,1,4,PTH
FMAT,2
METRIC
; #@! TA.AperFunction,Plated,PTH,ComponentDrill
T1C0.203
; #@! TA.AperFunction,Plated,PTH,ViaDrill
T2C0.250
; #@! TA.AperFunction,Plated,PTH,ViaDrill
T3C0.300
; #@! TA.AperFunction,Plated,PTH,ComponentDrill
T4C0.330
; #@! TA.AperFunction,Plated,PTH,ComponentDrill
T5C0.750
; #@! TA.AperFunction,Plated,PTH,ComponentDrill
T6C1.000
%
G90
G05
T1
X172.338Y-97.427
X172.938Y-96.827
X172.938Y-97.427
X172.938Y-98.027
X173.537Y-97.427
T2
X87.062Y-123.125
X87.08Y-119.913
X87.08Y-120.413
X87.08Y-121.288
X87.56Y-131.038
X87.562Y-123.125
X87.58Y-119.912
X87.58Y-120.413
X87.58Y-121.288
X88.062Y-123.125
X88.08Y-119.913
X88.08Y-120.413
X88.08Y-121.288
X88.185Y-131.038
X88.562Y-123.125
X88.58Y-119.913
X88.58Y-120.413
X88.58Y-121.288
X88.81Y-131.038
X89.062Y-123.125
X89.08Y-119.913
X89.08Y-120.413
X89.08Y-121.288
X89.435Y-129.788
X89.435Y-130.413
X89.435Y-131.038
X89.5Y-119.438
X89.562Y-123.125
X89.58Y-121.288
X90.0Y-119.438
X90.062Y-123.125
X90.08Y-121.288
X90.5Y-119.438
X90.562Y-123.125
X90.58Y-121.288
X91.0Y-119.438
X91.062Y-123.125
X91.08Y-121.288
X91.5Y-119.438
X91.563Y-123.125
X91.58Y-121.288
X92.0Y-119.438
X92.062Y-123.125
X92.08Y-121.288
X92.5Y-119.438
X92.562Y-123.125
X92.58Y-121.288
X93.0Y-119.438
X93.062Y-123.125
X93.08Y-121.288
X93.5Y-119.438
X93.562Y-123.125
X93.58Y-121.288
X94.08Y-121.288
X94.58Y-121.288
X95.08Y-121.288
X95.58Y-121.288
X96.08Y-121.288
X97.08Y-113.663
X97.58Y-128.75
X97.728Y-113.639
X97.853Y-113.052
X98.48Y-113.007
X98.58Y-128.75
X99.58Y-128.75
X101.375Y-116.688
X101.455Y-121.288
X101.75Y-127.75
X101.75Y-128.25
X101.955Y-121.288
X102.25Y-127.75
X102.25Y-128.25
X112.8Y-143.625
X113.3Y-143.968
X116.83Y-119.913
X116.83Y-120.413
X116.83Y-121.288
X117.205Y-131.031
X117.33Y-119.912
X117.33Y-120.413
X117.33Y-121.288
X117.83Y-119.913
X117.83Y-120.413
X117.83Y-121.288
X117.83Y-131.031
X118.33Y-119.913
X118.33Y-120.413
X118.33Y-121.288
X118.455Y-131.031
X118.83Y-119.913
X118.83Y-120.413
X118.83Y-121.288
X119.08Y-130.406
X119.08Y-131.031
X119.33Y-121.288
X119.83Y-121.288
X120.33Y-121.288
X120.83Y-121.288
X121.33Y-121.288
X121.83Y-121.288
X122.33Y-121.288
X122.83Y-121.288
X123.33Y-121.288
X123.83Y-121.288
X124.33Y-121.288
X124.83Y-121.288
X125.33Y-121.288
X125.83Y-121.288
X126.33Y-121.288
X126.823Y-113.656
X127.33Y-128.75
X127.472Y-113.632
X127.597Y-113.045
X128.223Y-113.0
X128.33Y-128.75
X129.33Y-128.75
X131.125Y-116.698
X131.205Y-121.288
X131.5Y-127.75
X131.5Y-128.25
X131.705Y-121.288
X132.0Y-127.75
X132.0Y-128.25
X142.55Y-143.625
X143.05Y-143.968
X148.062Y-96.75
X148.562Y-96.375
X149.062Y-96.75
X149.562Y-94.875
X150.074Y-95.314
X150.582Y-94.875
X154.625Y-104.625
X155.124Y-104.958
X155.375Y-123.601
X155.625Y-101.562
X155.875Y-123.101
X156.125Y-101.188
X156.625Y-101.562
X157.125Y-101.188
X160.625Y-108.002
X162.688Y-108.502
X162.688Y-109.502
X162.688Y-110.502
X162.688Y-111.502
X162.688Y-112.502
X163.062Y-109.0
X163.062Y-110.0
X163.062Y-111.002
X163.062Y-112.002
X164.375Y-104.402
X164.625Y-105.027
X166.167Y-101.465
X167.313Y-108.152
X167.581Y-122.601
X167.912Y-98.938
X168.312Y-108.152
X168.487Y-98.938
X169.062Y-98.938
X170.002Y-95.587
X170.316Y-106.877
X170.938Y-97.027
X170.938Y-97.827
X171.312Y-106.867
X171.537Y-98.777
X171.938Y-102.002
X172.039Y-104.375
X172.538Y-99.818
X172.845Y-114.438
X172.875Y-123.601
X173.25Y-123.125
X174.0Y-104.027
X174.0Y-105.027
X174.338Y-96.127
X174.338Y-98.902
X174.562Y-101.027
X175.188Y-97.527
X176.562Y-101.027
X176.562Y-101.777
X177.25Y-112.112
X178.0Y-115.837
X178.27Y-95.152
X179.824Y-114.688
X181.188Y-99.152
X181.25Y-95.152
X181.875Y-99.152
T3
X87.875Y-99.5
X87.875Y-100.25
X87.875Y-101.0
X87.875Y-101.75
X88.625Y-99.5
X88.625Y-100.25
X88.625Y-101.0
X88.625Y-101.75
X88.83Y-106.788
X88.83Y-107.788
X88.83Y-108.788
X88.955Y-117.038
X88.955Y-117.788
X89.375Y-99.5
X89.375Y-100.25
X89.375Y-101.0
X89.375Y-101.75
X89.83Y-106.788
X89.83Y-107.788
X89.83Y-108.788
X89.83Y-116.163
X90.58Y-116.163
X90.83Y-106.788
X90.83Y-107.788
X90.83Y-108.788
X91.33Y-116.163
X91.83Y-106.788
X91.83Y-107.788
X91.83Y-108.788
X92.33Y-116.163
X92.83Y-106.788
X92.83Y-107.788
X92.83Y-108.788
X93.08Y-116.163
X93.83Y-106.788
X93.83Y-107.788
X93.83Y-108.788
X93.83Y-116.163
X94.705Y-117.038
X94.705Y-117.788
X95.455Y-117.788
X96.66Y-115.927
X97.5Y-99.625
X97.5Y-100.375
X97.5Y-101.125
X97.5Y-101.875
X97.59Y-115.927
X97.688Y-89.875
X97.688Y-90.625
X97.688Y-91.375
X97.688Y-92.125
X98.25Y-99.625
X98.25Y-100.375
X98.25Y-101.125
X98.25Y-101.875
X98.438Y-89.875
X98.438Y-90.625
X98.438Y-91.375
X98.438Y-92.125
X98.517Y-119.688
X98.517Y-122.875
X99.079Y-119.688
X99.079Y-122.875
X99.188Y-89.875
X99.188Y-90.625
X99.188Y-91.375
X99.188Y-92.125
X99.205Y-106.788
X99.205Y-107.788
X99.205Y-108.788
X99.642Y-119.688
X99.642Y-122.875
X100.205Y-106.788
X100.205Y-107.788
X100.205Y-108.788
X102.83Y-106.788
X102.83Y-107.538
X102.83Y-108.288
X104.08Y-105.538
X104.08Y-109.538
X104.83Y-105.538
X104.83Y-109.538
X112.062Y-148.625
X118.58Y-106.788
X118.58Y-107.788
X118.58Y-108.788
X118.705Y-117.038
X118.705Y-117.788
X119.58Y-106.788
X119.58Y-107.788
X119.58Y-108.788
X119.58Y-116.163
X120.33Y-116.163
X120.58Y-106.788
X120.58Y-107.788
X120.58Y-108.788
X121.08Y-116.163
X121.58Y-106.788
X121.58Y-107.788
X121.58Y-108.788
X122.08Y-116.163
X122.58Y-106.788
X122.58Y-107.788
X122.58Y-108.788
X122.83Y-116.163
X123.58Y-106.788
X123.58Y-107.788
X123.58Y-108.788
X123.58Y-116.163
X124.455Y-117.038
X124.455Y-117.788
X125.205Y-117.788
X126.41Y-115.938
X127.34Y-115.938
X128.268Y-119.688
X128.268Y-122.938
X128.83Y-119.688
X128.83Y-122.938
X128.955Y-106.788
X128.955Y-107.788
X128.955Y-108.788
X129.392Y-119.688
X129.392Y-122.938
X129.598Y-124.688
X129.598Y-125.335
X129.955Y-106.788
X129.955Y-107.788
X129.955Y-108.788
X132.58Y-106.788
X132.58Y-107.538
X132.58Y-108.288
X133.83Y-105.538
X133.83Y-109.538
X134.58Y-105.538
X134.58Y-109.538
X141.812Y-148.625
X148.375Y-111.25
X148.375Y-113.25
X151.375Y-100.25
X151.502Y-127.726
X151.502Y-128.351
X152.127Y-127.726
X152.127Y-128.351
X152.127Y-136.226
X152.127Y-137.226
X152.127Y-138.226
X152.752Y-127.726
X152.752Y-128.351
X153.127Y-136.226
X153.127Y-137.226
X153.127Y-138.226
X153.147Y-124.601
X153.377Y-127.726
X153.377Y-128.351
X154.127Y-136.226
X154.127Y-137.226
X154.127Y-138.226
X154.502Y-125.476
X154.502Y-130.226
X155.127Y-124.851
X155.127Y-125.476
X155.127Y-130.226
X155.127Y-136.226
X155.127Y-137.226
X155.127Y-138.226
X155.752Y-124.851
X155.752Y-125.476
X155.752Y-130.226
X156.127Y-136.226
X156.127Y-137.226
X156.127Y-138.226
X156.377Y-124.851
X156.377Y-125.476
X156.377Y-130.226
X157.127Y-136.226
X157.127Y-137.226
X157.127Y-138.226
X158.127Y-136.226
X158.127Y-137.226
X158.127Y-138.226
X158.827Y-124.998
X159.127Y-136.226
X159.127Y-137.226
X159.127Y-138.226
X159.377Y-128.976
X159.377Y-128.976
X159.377Y-129.601
X159.377Y-130.226
X159.377Y-130.226
X160.002Y-128.976
X160.002Y-128.976
X160.002Y-129.601
X160.002Y-129.601
X160.002Y-130.226
X160.002Y-130.226
X160.289Y-133.226
X160.375Y-116.125
X161.002Y-124.851
X161.002Y-125.476
X161.002Y-130.226
X161.002Y-133.601
X161.002Y-134.226
X161.002Y-134.851
X161.002Y-129.601
X161.627Y-124.851
X161.627Y-125.476
X161.627Y-129.601
X161.627Y-130.226
X161.627Y-133.601
X161.627Y-134.226
X161.627Y-134.851
X162.252Y-124.851
X162.252Y-125.476
X162.252Y-129.601
X162.252Y-130.226
X162.252Y-134.851
X162.877Y-129.601
X162.877Y-130.226
X162.877Y-134.851
X163.375Y-104.25
X163.502Y-124.851
X163.502Y-125.476
X163.502Y-129.601
X163.502Y-130.226
X163.502Y-134.851
X164.127Y-124.851
X164.127Y-125.476
X164.752Y-124.851
X164.752Y-125.476
X165.414Y-134.226
X166.5Y-115.625
X167.312Y-97.152
X167.312Y-97.777
X167.313Y-96.527
X167.5Y-115.625
X167.938Y-96.527
X167.938Y-97.152
X167.938Y-97.777
X168.5Y-115.625
X168.562Y-96.527
X168.563Y-97.152
X168.563Y-97.777
X169.002Y-127.726
X169.002Y-128.351
X169.127Y-136.226
X169.127Y-137.226
X169.127Y-138.226
X169.5Y-115.625
X169.5Y-116.625
X169.5Y-117.625
X169.5Y-118.625
X169.5Y-119.625
X169.627Y-127.726
X169.627Y-128.351
X170.127Y-136.226
X170.127Y-137.226
X170.127Y-138.226
X170.252Y-127.726
X170.252Y-128.351
X170.5Y-115.625
X170.5Y-116.625
X170.5Y-117.625
X170.5Y-118.625
X170.5Y-119.625
X170.647Y-124.601
X170.877Y-127.726
X170.877Y-128.351
X171.127Y-136.226
X171.127Y-137.226
X171.127Y-138.226
X171.195Y-125.2
X171.5Y-115.625
X171.5Y-116.625
X171.5Y-117.625
X171.5Y-118.625
X171.5Y-119.625
X172.002Y-125.476
X172.002Y-130.226
X172.127Y-136.226
X172.127Y-137.226
X172.127Y-138.226
X172.627Y-124.851
X172.627Y-125.476
X172.627Y-130.226
X173.127Y-136.226
X173.127Y-137.226
X173.127Y-138.226
X173.252Y-124.851
X173.252Y-125.476
X173.252Y-130.226
X173.877Y-124.851
X173.877Y-125.476
X173.877Y-130.226
X174.127Y-136.226
X174.127Y-137.226
X174.127Y-138.226
X175.127Y-136.226
X175.127Y-137.226
X175.127Y-138.226
X176.127Y-136.226
X176.127Y-137.226
X176.127Y-138.226
X176.312Y-125.062
X176.877Y-128.976
X176.877Y-129.601
X176.877Y-130.226
X177.502Y-128.976
X177.502Y-129.601
X177.502Y-130.226
X177.752Y-133.226
X178.125Y-109.402
X178.125Y-110.027
X178.125Y-108.777
X178.377Y-124.851
X178.377Y-125.476
X178.502Y-130.226
X178.502Y-133.601
X178.502Y-134.226
X178.502Y-134.851
X178.502Y-129.601
X178.75Y-108.777
X178.75Y-109.402
X178.75Y-110.027
X179.002Y-124.851
X179.002Y-125.476
X179.127Y-129.601
X179.127Y-130.226
X179.127Y-133.601
X179.127Y-134.226
X179.127Y-134.851
X179.375Y-108.777
X179.375Y-109.402
X179.375Y-110.027
X179.627Y-124.851
X179.627Y-125.476
X179.752Y-129.601
X179.752Y-130.226
X179.752Y-134.851
X180.377Y-129.601
X180.377Y-130.226
X180.377Y-134.851
X181.002Y-124.851
X181.002Y-125.476
X181.002Y-129.601
X181.002Y-130.226
X181.002Y-134.851
X181.627Y-124.851
X181.627Y-125.476
X182.252Y-124.851
X182.252Y-125.476
X182.877Y-134.226
T4
X102.6Y-97.075
X102.6Y-99.675
X102.6Y-98.375
X103.9Y-98.375
X103.9Y-97.075
X103.9Y-99.675
T6
X117.935Y-93.338
X117.935Y-95.878
X120.475Y-93.338
X120.475Y-95.878
X123.015Y-95.878
X123.015Y-93.338
X125.555Y-93.338
X125.555Y-95.878
X128.095Y-93.338
X128.095Y-95.878
X130.635Y-93.338
X130.635Y-95.878
X133.175Y-93.338
X133.175Y-95.878
X135.715Y-93.338
X135.715Y-95.878
X138.255Y-93.338
X138.255Y-95.878
X140.795Y-93.338
X140.795Y-95.878
X143.335Y-93.338
X143.335Y-95.878
X145.875Y-95.878
X145.875Y-93.338
T5
G00X155.68Y-87.475
M15
G01X155.68Y-86.175
M16
G05
G00X164.32Y-87.475
M15
G01X164.32Y-86.175
M16
G05
G00X169.18Y-87.475
M15
G01X169.18Y-86.175
M16
G05
G00X177.82Y-87.475
M15
G01X177.82Y-86.175
M16
G05
M30
